<?xml version="1.0" encoding="UTF-8" standalone="no"?>
<!-- Created with Inkscape (http://www.inkscape.org/) -->

<svg
   width="6mm"
   height="6mm"
   viewBox="0 0 6 6"
   version="1.1"
   id="svg1"
   xml:space="preserve"
   sodipodi:docname="aka.svg"
   inkscape:version="1.4.4 (dcaf3e7d9e, 2026-05-05)"
   xmlns:inkscape="http://www.inkscape.org/namespaces/inkscape"
   xmlns:sodipodi="http://sodipodi.sourceforge.net/DTD/sodipodi-0.dtd"
   xmlns="http://www.w3.org/2000/svg"
   xmlns:svg="http://www.w3.org/2000/svg"><sodipodi:namedview
     id="namedview1"
     pagecolor="#ffffff"
     bordercolor="#000000"
     borderopacity="0.25"
     inkscape:showpageshadow="2"
     inkscape:pageopacity="0.0"
     inkscape:pagecheckerboard="0"
     inkscape:deskcolor="#d1d1d1"
     inkscape:document-units="mm"
     inkscape:zoom="15.498913"
     inkscape:cx="19.74332"
     inkscape:cy="0.3548636"
     inkscape:window-width="1920"
     inkscape:window-height="1024"
     inkscape:window-x="0"
     inkscape:window-y="32"
     inkscape:window-maximized="1"
     inkscape:current-layer="layer1" /><defs
     id="defs1" /><g
     inkscape:label="Layer 1"
     inkscape:groupmode="layer"
     id="layer1"><text
       xml:space="preserve"
       style="font-style:normal;font-variant:normal;font-weight:normal;font-stretch:normal;font-size:14.1111px;line-height:0.9;font-family:'Fredoka dingbats';-inkscape-font-specification:'Fredoka dingbats';letter-spacing:-0.291042px;writing-mode:lr-tb;direction:ltr;fill:#1e1f27;fill-opacity:1;stroke-width:2;stroke-linecap:round;stroke-linejoin:round"
       x="-12.363758"
       y="-3.3485177"
       id="text1"><tspan
         sodipodi:role="line"
         style="stroke-width:2"
         x="-12.363758"
         y="-3.3485177"
         id="tspan2" /></text><path
       style="fill:#1e1f27;fill-opacity:1;stroke-width:0.0329138"
       d="m 2.6651152,5.9871837 c -0.58699,-0.0708 -1.09502,-0.28223 -1.5501,-0.64526 -0.12014998,-0.0958 -0.35376998,-0.3282 -0.44533998,-0.44292 -0.0927,-0.11612 -0.18049,-0.24131 -0.24739,-0.3527 -0.073,-0.12155 -0.18897,-0.3622 -0.23768,-0.49329 -0.0418,-0.11258 -0.11025,-0.34195 -0.11025,-0.36964 0,-0.0162 0.0147,-0.0166 0.55734,-0.0166 H 1.1890352 v -0.1045 -0.1045 h -0.57816998 -0.57816 l -0.005,-0.0196 c -0.003,-0.0108 -0.01,-0.0627 -0.0158,-0.11539 -0.0109999997,-0.0963 -0.0163,-0.51215 -0.007,-0.52185 0.003,-0.003 0.1748,-0.004 0.38211,-0.003 l 0.37694,0.002 -0.0991,0.0903 c -0.0545,0.0497 -0.10017,0.0931 -0.1015,0.0965 -0.003,0.007 0.12953,0.15283 0.13898,0.15283 0.009,0 0.48608998,-0.43916 0.48608998,-0.44751 0,-0.004 -0.10825,-0.10613 -0.24056998,-0.22744 -0.19398,-0.17785 -0.24323,-0.21888 -0.25436,-0.21186 -0.008,0.005 -0.0413,0.0391 -0.075,0.0763 l -0.0612,0.0676 0.0347,0.0314 c 0.0191,0.0172 0.066,0.06 0.10424,0.095 l 0.0696,0.0636 h -0.37197 -0.37197 l 0.004,-0.024 c 0.0563,-0.34336 0.13534,-0.59481 0.27847,-0.88609 0.16143,-0.32853 0.3523,-0.59084 0.61234,-0.84154995 0.45396998,-0.43768 1.01235998,-0.71119 1.65204998,-0.80919 0.15456,-0.0237 0.53949,-0.0332 0.70784,-0.0174 0.68831,0.0643 1.31917,0.35395 1.81223,0.8321 0.50114,0.48600995 0.80087,1.08671995 0.89511,1.79400995 0.0212,0.15939 0.0213,0.57226 4e-5,0.73048 -0.0775,0.57789 -0.28667,1.07485 -0.63817,1.5163 -0.0968,0.12153 -0.33805,0.36365 -0.45326,0.45484 -0.46802,0.37045 -0.99184,0.58906 -1.55925,0.65075 -0.15304,0.0166 -0.53078,0.0166 -0.66875,10e-6 z m -0.45771,-2.25986 c 0.0309,-0.0109 0.0867,-0.0406 0.1241,-0.0661 l 0.068,-0.0463 v 0.052 0.052 h 0.14369 0.14369 v -0.59653 -0.59652 h -0.14369 -0.14369 v 0.0615 0.0615 l -0.0501,-0.0389 c -0.10181,-0.079 -0.19124,-0.11032 -0.31543,-0.11032 -0.15987,0 -0.26187,0.0423 -0.37558,0.15596 -0.0602,0.0601 -0.082,0.0894 -0.11095,0.14884 -0.0487,0.0999 -0.0631,0.15941 -0.0685,0.28302 -0.007,0.16814 0.0246,0.29929 0.10166,0.41751 0.068,0.10431 0.17203,0.18602 0.28221,0.22174 0.0762,0.0247 0.0863,0.0259 0.19268,0.0229 0.072,-0.002 0.10972,-0.008 0.15188,-0.0225 z m -0.21825,-0.24054 c -0.12517,-0.0418 -0.21244,-0.17255 -0.22281,-0.33383 -0.0107,-0.16591 0.0662,-0.3121 0.19603,-0.37298 0.0422,-0.0198 0.0612,-0.0233 0.12798,-0.0233 0.0665,0 0.0858,0.003 0.12732,0.0229 0.12913,0.0605 0.19937,0.1825 0.19915,0.34576 -1.7e-4,0.13035 -0.0373,0.22268 -0.11975,0.29806 -0.0771,0.0704 -0.20669,0.0971 -0.30792,0.0633 z m 3.15822,0.25373 c 0.0666,-0.0171 0.13132,-0.0486 0.18899,-0.092 l 0.0458,-0.0344 0.003,0.0525 0.003,0.0525 h 0.14327 0.14328 v -0.59653 -0.59652 h -0.14331 -0.14331 l -0.003,0.0608 -0.003,0.0608 -0.0436,-0.0351 c -0.0965,-0.0777 -0.19623,-0.11257 -0.32221,-0.11257 -0.21722,0 -0.38679,0.1105 -0.48775,0.31786 -0.0533,0.10944 -0.0687,0.19302 -0.0627,0.33892 0.006,0.13187 0.0192,0.18968 0.0695,0.29244 0.0743,0.15185 0.23131,0.27231 0.38944,0.29878 0.0535,0.009 0.17455,0.005 0.22241,-0.007 z m -0.17122,-0.25373 c -0.0861,-0.0287 -0.16637,-0.11245 -0.20079,-0.20931 -0.0229,-0.0643 -0.0306,-0.1847 -0.0159,-0.24747 0.0371,-0.15839 0.15187,-0.26529 0.29594,-0.2756 0.1413,-0.0101 0.26978,0.0748 0.32288,0.21348 0.027,0.0705 0.0333,0.20648 0.0128,0.27687 -0.0377,0.12962 -0.11104,0.20962 -0.22259,0.24275 -0.0579,0.0172 -0.13963,0.0169 -0.19239,-7.2e-4 z m -1.52292,0.007 v -0.2249 l 0.0209,-0.0196 0.0209,-0.0196 0.19031,0.24399 0.19031,0.24399 0.18555,5.2e-4 c 0.17746,4.9e-4 0.18506,-1.7e-4 0.17417,-0.0152 -0.006,-0.009 -0.12894,-0.16184 -0.27263,-0.34039 -0.14369,-0.17855 -0.26125,-0.32723 -0.26125,-0.33041 0,-0.003 0.11266,-0.115 0.25036,-0.2485 0.13771,-0.13351 0.25037,-0.24618 0.25037,-0.25037 0,-0.004 -0.0832,-0.008 -0.18498,-0.008 h -0.18498 l -0.18948,0.18933 -0.18948,0.18934 v -0.62041 -0.6204 h -0.13934 -0.13933 v 1.0276 1.02759 h 0.13933 0.13934 z"
       id="path81"
       sodipodi:nodetypes="ssssssscccccsssscssssssscsscccssssssssssssssscccccccccccsssssssssssssscsssscccccccccccsssssssssssssssssccccccscssssscccccccccccc" /></g></svg>
