<?xml version="1.0" encoding="UTF-8" standalone="no"?>
<!-- Created with Inkscape (http://www.inkscape.org/) -->

<svg
   width="6mm"
   height="6mm"
   viewBox="0 0 6 6"
   version="1.1"
   id="svg1"
   xml:space="preserve"
   inkscape:version="1.4.4 (dcaf3e7d9e, 2026-05-05)"
   sodipodi:docname="bluelab.svg"
   xmlns:inkscape="http://www.inkscape.org/namespaces/inkscape"
   xmlns:sodipodi="http://sodipodi.sourceforge.net/DTD/sodipodi-0.dtd"
   xmlns="http://www.w3.org/2000/svg"
   xmlns:svg="http://www.w3.org/2000/svg"><sodipodi:namedview
     id="namedview1"
     pagecolor="#ffffff"
     bordercolor="#000000"
     borderopacity="0.25"
     inkscape:showpageshadow="2"
     inkscape:pageopacity="0.0"
     inkscape:pagecheckerboard="0"
     inkscape:deskcolor="#d1d1d1"
     inkscape:document-units="mm"
     inkscape:zoom="9.438167"
     inkscape:cx="4.2381111"
     inkscape:cy="0.79464583"
     inkscape:window-width="1920"
     inkscape:window-height="1024"
     inkscape:window-x="0"
     inkscape:window-y="32"
     inkscape:window-maximized="1"
     inkscape:current-layer="layer1" /><defs
     id="defs1" /><g
     inkscape:label="Layer 1"
     inkscape:groupmode="layer"
     id="layer1"><path
       style="fill:#1e1f27;fill-opacity:1;stroke-width:0.0508328"
       d="m 2.6720318,5.9858721 c -0.894313,-0.125647 -1.624862,-0.5609 -2.15416896,-1.283429 -0.06403,-0.0874 -0.179526,-0.288652 -0.243225,-0.423811 -0.12068,-0.256062 -0.185575,-0.470559 -0.247116,-0.816798 -0.03162,-0.177918 -0.03188,-0.720966 -4.06e-4,-0.894612 0.132505,-0.731457 0.391493,-1.238524 0.87113,-1.70557096 0.54626896,-0.531929 1.21218296,-0.822574 1.96823496,-0.859056 0.5285,-0.0255 1.180268,0.138743 1.627392,0.410098 0.26214,0.15909 0.394776,0.264181 0.625954,0.49596 0.476456,0.47769496 0.740262,1.00603496 0.853379,1.70911396 0.02727,0.169503 0.03128,0.557293 0.0075,0.726274 -0.09718,0.690657 -0.396427,1.298941 -0.873874,1.776311 -0.192797,0.192766 -0.301912,0.282237 -0.508185,0.416698 -0.333331,0.217285 -0.719162,0.364167 -1.141646,0.434615 -0.182329,0.0304 -0.614058,0.03822 -0.78495,0.01421 z m 0.846733,-0.306654 c 0.197019,-0.03871 0.219202,-0.04469 0.390036,-0.105016 0.779345,-0.275222 1.37006,-0.869655 1.659669,-1.670119 0.03548,-0.09805 0.08121,-0.264058 0.105611,-0.383311 0.04117,-0.201216 0.04302,-0.223793 0.0427,-0.519694 -3.21e-4,-0.293372 -0.0025,-0.319752 -0.04222,-0.511081 -0.07067,-0.340396 -0.228064,-0.72282 -0.411635,-1.000139 -0.41343,-0.62456596 -1.040852,-1.03810796 -1.771058,-1.16732596 -0.182199,-0.03224 -0.24321,-0.03689 -0.484183,-0.03689 -0.241672,0 -0.301405,0.0046 -0.483784,0.03708 -0.798433,0.142293 -1.440548,0.576202 -1.84727796,1.24829796 -0.441996,0.730371 -0.531659,1.616665 -0.239984,2.372168 0.115963,0.300372 0.241999,0.524402 0.423125,0.752108 0.32870396,0.413236 0.74795996,0.714166 1.22686596,0.880607 0.322586,0.112112 0.565513,0.148528 0.954679,0.143112 0.25462,-0.0035 0.321214,-0.0091 0.477458,-0.0398 z m -1.434952,-1.057602 c -0.05333,-0.02148 -0.07521,-0.07253 -0.06884,-0.160614 0.0064,-0.08808 0.01668,-0.105151 0.288587,-0.478109 0.07011,-0.09616 0.148519,-0.205105 0.174244,-0.242091 0.02572,-0.03699 0.06923,-0.09823 0.09667,-0.13609 0.02744,-0.03786 0.08411,-0.116544 0.125926,-0.174844 0.04182,-0.0583 0.122054,-0.16955 0.178305,-0.247221 0.05625,-0.07767 0.166664,-0.232004 0.24536,-0.342963 0.0787,-0.110958 0.165119,-0.232004 0.192049,-0.26899 0.09512,-0.130637 0.134704,-0.203575 0.156358,-0.288095 0.02737,-0.106838 0.01817,-0.181542 -0.03627,-0.294374 -0.05055,-0.104778 -0.103657,-0.158863 -0.207226,-0.211053 l -0.08007,-0.04035 -0.440472,-0.0042 -0.440471,-0.0042 -0.0011,0.918763 c -5.88e-4,0.505319 -0.0053,0.969341 -0.0104,1.031158 -0.0083,0.100486 -0.0133,0.115805 -0.04675,0.144582 -0.05086,0.04375 -0.128711,0.04363 -0.179752,-2.74e-4 l -0.03774,-0.03246 v -1.040139 c 0,-0.96899 0.0017,-1.044912 0.02434,-1.109909 0.03257,-0.09337 0.106089,-0.15986 0.193169,-0.174703 0.03571,-0.0061 0.256165,-0.01014 0.489893,-0.009 0.472781,0.0023 0.519502,0.0085 0.680821,0.09072 0.126849,0.06464 0.215541,0.147948 0.28231,0.265161 0.128926,0.226332 0.132646,0.464006 0.01124,0.71802 -0.05833,0.122039 -0.07497,0.146633 -0.328596,0.485691 -0.169844,0.227052 -0.22215,0.298051 -0.385318,0.523023 -0.06975,0.09616 -0.175196,0.241419 -0.234334,0.322789 -0.05914,0.08137 -0.127153,0.17518 -0.151145,0.208467 -0.02399,0.03329 -0.07557,0.10477 -0.114619,0.158849 -0.03905,0.05408 -0.071,0.103446 -0.071,0.109704 0,0.02314 0.263286,0.02885 0.800247,0.01735 l 0.55143,-0.0118 0.106911,-0.04527 c 0.08622,-0.03651 0.125434,-0.06368 0.20263,-0.140411 0.128751,-0.127972 0.194816,-0.279047 0.194816,-0.445501 0,-0.0819 -0.04135,-0.25204 -0.07884,-0.324389 -0.06591,-0.127202 -0.223804,-0.243468 -0.416301,-0.306553 -0.116825,-0.03829 -0.141019,-0.127273 -0.06059,-0.222856 0.03363,-0.03997 0.04064,-0.04242 0.104237,-0.03651 0.136617,0.01271 0.328931,0.111153 0.453121,0.231953 0.09911,0.09641 0.169491,0.206786 0.217196,0.340632 0.03836,0.107636 0.04165,0.130685 0.04251,0.298221 8.49e-4,0.16525 -0.0026,0.192212 -0.03789,0.300001 -0.06278,0.191528 -0.176191,0.346572 -0.331043,0.452556 -0.1024,0.07008 -0.161815,0.09856 -0.306742,0.147041 l -0.125173,0.04187 -0.796119,-8.53e-4 c -0.437865,-4.67e-4 -0.809384,-0.0062 -0.825596,-0.01273 z"
       id="path1" /></g></svg>
