<?xml version="1.0" encoding="UTF-8" standalone="no"?>
<!-- Created with Inkscape (http://www.inkscape.org/) -->

<svg
   width="6mm"
   height="6mm"
   viewBox="0 0 6 6"
   version="1.1"
   id="svg1"
   xml:space="preserve"
   sodipodi:docname="champagne.svg"
   inkscape:version="1.4.4 (dcaf3e7d9e, 2026-05-05)"
   xmlns:inkscape="http://www.inkscape.org/namespaces/inkscape"
   xmlns:sodipodi="http://sodipodi.sourceforge.net/DTD/sodipodi-0.dtd"
   xmlns="http://www.w3.org/2000/svg"
   xmlns:svg="http://www.w3.org/2000/svg"><sodipodi:namedview
     id="namedview1"
     pagecolor="#ffffff"
     bordercolor="#000000"
     borderopacity="0.25"
     inkscape:showpageshadow="2"
     inkscape:pageopacity="0.0"
     inkscape:pagecheckerboard="0"
     inkscape:deskcolor="#d1d1d1"
     inkscape:document-units="mm"
     inkscape:zoom="6.7522527"
     inkscape:cx="4.4429617"
     inkscape:cy="8.6637753"
     inkscape:window-width="1920"
     inkscape:window-height="1024"
     inkscape:window-x="0"
     inkscape:window-y="32"
     inkscape:window-maximized="1"
     inkscape:current-layer="layer1" /><defs
     id="defs1" /><g
     inkscape:label="Layer 1"
     inkscape:groupmode="layer"
     id="layer1"><path
       style="fill:#1e1f27;stroke-width:0.0447832;fill-opacity:1"
       d="m 3.2315924,5.9907788 c -0.0599,-0.02419 -0.0838,-0.127933 -0.0461,-0.200762 0.0325,-0.06283 0.12053,-0.127314 0.22583,-0.165416 0.15242,-0.05515 0.24046,-0.10418 0.30744,-0.171216 0.10533,-0.105406 0.14844,-0.230282 0.14844,-0.429969 0,-0.142513 -0.11261,-1.048701 -0.13592,-1.09378 -0.0306,-0.05919 -0.10307,-0.109297 -0.28395,-0.196344 -0.19902,-0.09578 -0.22699,-0.114405 -0.3415,-0.227449 -0.22928,-0.226348 -0.36388,-0.54194 -0.42599,-0.998736 -0.024,-0.176683 -0.0198,-0.972902 0.007,-1.291528 0.0223,-0.26659598 0.0736,-0.74568198 0.0805,-0.75187398 0.002,-0.002 0.33729,-0.04175 0.7446,-0.08838 0.4073,-0.04663 0.75409,-0.08743 0.77063,-0.09069 0.0351,-0.0069 0.0258,-0.02897 0.18461,0.439207 0.20895,0.61611698 0.33922,1.12015198 0.39044,1.51073298 0.0258,0.196482 0.0175,0.528294 -0.0168,0.675386 -0.0779,0.334176 -0.20174,0.527102 -0.47211,0.735821 -0.12791,0.09874 -0.18537,0.163891 -0.20397,0.231267 -0.0125,0.04528 0.0799,0.958229 0.11124,1.099534 0.0402,0.180962 0.14724,0.337659 0.27414,0.401269 0.0853,0.04275 0.12648,0.05366 0.27633,0.07321 0.20224,0.02638 0.30167,0.08398 0.3315,0.192038 0.009,0.03207 0.008,0.05274 -0.005,0.083 -0.0203,0.04856 -0.0637,0.06878 -0.17172,0.07994 -0.0683,0.0071 -0.72974,0.08301 -1.45571,0.167146 -0.28291,0.03279 -0.25948,0.03139 -0.2937,0.01758 z m -1.45572,-0.249548 c -0.0391,-0.0052 -0.423,-0.05016 -0.85312004,-0.0999 -0.43011,-0.04974 -0.79351,-0.09324 -0.80756,-0.09667 -0.0447,-0.01091 -0.0784,-0.05795 -0.0784,-0.109343 0,-0.06222 0.0401,-0.124672 0.10398,-0.162135 0.0671,-0.03931 0.10522,-0.04978 0.25472,-0.06994 0.13432,-0.01811 0.20281,-0.0385 0.27874,-0.083 0.10994,-0.06443 0.20165,-0.204795 0.24328,-0.37232 0.0225,-0.09052 0.11878004,-0.933698 0.12058004,-1.055925 0.002,-0.108676 -0.0291,-0.148465 -0.25174004,-0.325712 -0.23528,-0.187353 -0.36033,-0.391518 -0.42822,-0.699117 -0.0347,-0.157035 -0.0426,-0.474831 -0.0169,-0.675486 0.0393,-0.306701 0.13313,-0.702989 0.27357,-1.15526698 0.0815,-0.262409 0.25815,-0.777623 0.27107,-0.790548 0.007,-0.0073 0.14957004,0.008 1.06092004,0.113497 0.47885,0.05545 0.47898,0.05547 0.48812,0.08484 0.0109,0.03516 0.0499,0.399838 0.0779,0.728468 0.0255,0.29959798 0.0295,1.11311898 0.006,1.28560398 -0.0672,0.500373 -0.22383,0.839114 -0.49439,1.069165 -0.061,0.05185 -0.13315,0.09487 -0.27252,0.162461 -0.2048,0.09932 -0.25349,0.132757 -0.28259,0.194076 -0.0252,0.05315 -0.13811,0.953832 -0.13787,1.100077 3.1e-4,0.199855 0.0479,0.329574 0.15964,0.435263 0.0697,0.06591 0.1216,0.09471 0.27054,0.150078 0.12194,0.04534 0.18385,0.08328 0.22513,0.137971 0.0331,0.04381 0.0572,0.119472 0.0477,0.149461 -0.0303,0.09564 -0.0721,0.10927 -0.25889,0.0844 z m 3.54937,-3.986829 c -0.20776,-0.103949 -0.22746,-0.116549 -0.24936,-0.159488 -0.048,-0.09413 -0.0183,-0.187561 0.075,-0.235581 0.0417,-0.02149 0.0645,-0.02618 0.0971,-0.02006 0.0701,0.01316 0.43754,0.20292 0.47187,0.243716 0.0701,0.08333 0.0451,0.208937 -0.0512,0.257616 -0.029,0.01466 -0.0674,0.02666 -0.0853,0.02666 -0.0179,0 -0.13401,-0.05079 -0.25808,-0.112865 z m -0.27408,-0.613163 c -0.0529,-0.03566 -0.0883,-0.119257 -0.0767,-0.18107898 0.0171,-0.09105 0.0487,-0.108305 0.43206,-0.236022 0.19166,-0.06385 0.36823,-0.116084 0.39238,-0.116084 0.0605,0 0.11428,0.03505 0.14215,0.09262 0.0385,0.07946 0.0264,0.156488 -0.033,0.210202 -0.0314,0.02844 -0.71988,0.25730898 -0.774,0.25730898 -0.025,0 -0.0596,-0.01124 -0.0829,-0.02694 z m -0.23605,-0.45650898 c -0.0535,-0.02944 -0.087,-0.08713 -0.0865,-0.149014 5.6e-4,-0.06311 0.19082,-0.455479 0.24158,-0.498193 0.0817,-0.06874 0.21699,-0.03912 0.26068,0.05708 0.0121,0.02676 0.0222,0.06284 0.0223,0.08018 4e-4,0.05116 -0.21595,0.475331 -0.25578,0.50143 -0.0495,0.03242 -0.1319,0.03627 -0.18237,0.0085 z"
       id="path1" /></g></svg>
