<?xml version="1.0" encoding="UTF-8" standalone="no"?>
<!-- Created with Inkscape (http://www.inkscape.org/) -->

<svg
   width="6mm"
   height="6mm"
   viewBox="0 0 6 6"
   version="1.1"
   id="svg1"
   xml:space="preserve"
   sodipodi:docname="climbing.svg"
   inkscape:version="1.4.4 (dcaf3e7d9e, 2026-05-05)"
   xmlns:inkscape="http://www.inkscape.org/namespaces/inkscape"
   xmlns:sodipodi="http://sodipodi.sourceforge.net/DTD/sodipodi-0.dtd"
   xmlns="http://www.w3.org/2000/svg"
   xmlns:svg="http://www.w3.org/2000/svg"><sodipodi:namedview
     id="namedview1"
     pagecolor="#ffffff"
     bordercolor="#000000"
     borderopacity="0.25"
     inkscape:showpageshadow="2"
     inkscape:pageopacity="0.0"
     inkscape:pagecheckerboard="0"
     inkscape:deskcolor="#d1d1d1"
     inkscape:document-units="mm"
     inkscape:zoom="0.71545979"
     inkscape:cx="-141.16796"
     inkscape:cy="-123.69668"
     inkscape:window-width="1920"
     inkscape:window-height="1024"
     inkscape:window-x="0"
     inkscape:window-y="32"
     inkscape:window-maximized="1"
     inkscape:current-layer="layer1" /><defs
     id="defs1" /><g
     inkscape:label="Layer 1"
     inkscape:groupmode="layer"
     id="layer1"><path
       style="fill:#1e1f27;stroke-width:0.112513;fill-opacity:1"
       d="M 3.8803003,5.9859788 C 3.648891,6.0120188 3.5725548,6.0046698 3.3960282,5.9393578 3.1021504,5.8306268 2.8398911,5.5772416 2.6492727,5.2178702 2.4898482,4.9173088 1.2482444,2.2552735 1.0812,1.8558765 0.8996438,1.4217825 0.86148387,1.1965825 0.91956694,0.90200948 c 0.0944517,-0.479018 0.52988076,-0.788192 1.23297206,-0.875465 0.7139681,-0.08862 1.335198,0.04698 1.7048576,0.372133 0.1713221,0.150696 0.1996185,0.190074 0.3112117,0.433085 C 4.3090111,1.1375095 4.3227507,1.2571705 4.2300143,1.3665585 4.1572333,1.4524085 4.1121261,1.4733775 4.0085304,1.4695235 3.875165,1.4645235 3.7795541,1.3693535 3.7298277,1.1919915 3.6215914,0.80594148 3.2750403,0.58296348 2.7372957,0.55337748 2.2100815,0.52436748 1.7392459,0.63770748 1.549973,0.83919248 1.4371904,0.95924948 1.4170748,1.1501495 1.490948,1.3993495 1.542379,1.5728465 2.1986763,3.0088965 2.8276323,4.3241632 3.0484784,4.7859941 3.2133035,5.0990834 3.280338,5.1840886 3.4715356,5.4265427 3.6820455,5.5016621 3.9088131,5.4083571 4.3171807,5.2403314 4.598351,4.7321181 4.5599242,4.2314787 c -0.016251,-0.2117263 -0.00106,-0.2484549 0.070995,-0.171673 0.031919,0.034012 0.062186,0.060131 0.067261,0.058044 0.00507,-0.00209 0.075512,-0.067284 0.1565272,-0.1448807 C 4.9357224,3.895373 5.0136311,3.8271023 5.0278368,3.8212574 5.0720628,3.8030604 5.1075518,4.0258947 5.1054658,4.308677 5.1008258,4.9371203 4.8357662,5.4608524 4.3568208,5.7879086 4.1502122,5.9289948 4.0624234,5.9654852 3.8803013,5.9859796 Z M 4.3174368,3.6065535 C 4.1170214,3.3924605 3.9094916,3.1700275 3.8562595,3.1122585 3.8030275,3.0544885 3.5464344,2.7791105 3.2860523,2.5003045 3.0256704,2.2214995 2.8116192,1.9786635 2.8103829,1.9606705 c -0.00124,-0.01799 0.079408,-0.11014 0.1792089,-0.204769 0.1435519,-0.136113 0.1892265,-0.166425 0.2186521,-0.145111 0.039576,0.02867 1.8173716,1.940355 1.8566282,1.996458 0.022829,0.032626 -0.2496837,0.3284629 -0.340105,0.3692143 -0.030967,0.013958 -0.1445246,-0.089168 -0.4073303,-0.3699093 z m 0.5158055,0.095188 c 0.049547,-0.118825 -0.1061236,-0.236625 -0.1980214,-0.149847 -0.058837,0.05556 -0.025936,0.1863339 0.05168,0.2054122 0.081342,0.019995 0.1211357,0.00489 0.1463419,-0.055564 z m -0.1410715,0.021658 c -0.088961,-0.047191 -0.047234,-0.188835 0.050869,-0.172677 0.059057,0.0097 0.08767,0.1394867 0.037921,0.1719731 -0.022216,0.014508 -0.062172,0.014825 -0.08879,7.089e-4 z"
       id="path1" /></g></svg>
