<?xml version="1.0" encoding="UTF-8" standalone="no"?>
<!-- Created with Inkscape (http://www.inkscape.org/) -->

<svg
   width="6mm"
   height="6mm"
   viewBox="0 0 6 6"
   version="1.1"
   id="svg1"
   xml:space="preserve"
   sodipodi:docname="ecj.svg"
   inkscape:version="1.4.4 (dcaf3e7d9e, 2026-05-05)"
   xmlns:inkscape="http://www.inkscape.org/namespaces/inkscape"
   xmlns:sodipodi="http://sodipodi.sourceforge.net/DTD/sodipodi-0.dtd"
   xmlns="http://www.w3.org/2000/svg"
   xmlns:svg="http://www.w3.org/2000/svg"><sodipodi:namedview
     id="namedview1"
     pagecolor="#ffffff"
     bordercolor="#000000"
     borderopacity="0.25"
     inkscape:showpageshadow="2"
     inkscape:pageopacity="0.0"
     inkscape:pagecheckerboard="0"
     inkscape:deskcolor="#d1d1d1"
     inkscape:document-units="mm"
     inkscape:zoom="19.197579"
     inkscape:cx="9.4803622"
     inkscape:cy="8.8813283"
     inkscape:window-width="1920"
     inkscape:window-height="1024"
     inkscape:window-x="0"
     inkscape:window-y="32"
     inkscape:window-maximized="1"
     inkscape:current-layer="layer1" /><defs
     id="defs1" /><g
     inkscape:label="Layer 1"
     inkscape:groupmode="layer"
     id="layer1"><text
       xml:space="preserve"
       style="font-style:normal;font-variant:normal;font-weight:normal;font-stretch:normal;font-size:14.1111px;line-height:0.9;font-family:'Fredoka dingbats';-inkscape-font-specification:'Fredoka dingbats';letter-spacing:-0.291042px;writing-mode:lr-tb;direction:ltr;fill:#1e1f27;fill-opacity:1;stroke-width:2;stroke-linecap:round;stroke-linejoin:round"
       x="-12.363758"
       y="-3.3485177"
       id="text1"><tspan
         sodipodi:role="line"
         style="stroke-width:2"
         x="-12.363758"
         y="-3.3485177"
         id="tspan2" /></text><path
       style="fill:#1e1f27;stroke-width:0.0531422;fill-opacity:1"
       d="m 0.115622,5.9666591 c 0.032,-0.1056 0.1302,-0.2493 0.2512,-0.367 0.1773,-0.1726 0.4958,-0.426 0.7465,-0.594 0.2551,-0.171 0.3472,-0.2235 0.6756,-0.3856 l 0.2537,-0.1252 -0.024,-0.2108 c -0.042,-0.3586 -0.1027,-1.4045 -0.094,-1.6076 0,-0.029 0,-0.057 -0.01,-0.061 0,0 -0.073,-0.024 -0.1511,-0.042 -0.1073,-0.025 -0.1829,-0.034 -0.3038,-0.034 -0.133,0 -0.1706,0 -0.2158,-0.028 -0.057,-0.029 -0.099,-0.076 -0.099,-0.1107 0,-0.028 0.1962,-0.014 0.3445,0.025 0.072,0.019 0.1722,0.032 0.2777,0.036 0.1483,0.01 0.1653,0 0.1661,-0.018 6e-4,-0.013 0,-0.043 0.01,-0.066 0,-0.023 0.013,-0.1054 0.022,-0.1827 0.059,-0.5032 0.1927,-0.9973 0.4363,-1.61000005 0.058,-0.1464 0.2784,-0.5969 0.2873,-0.5879 0,0 -0.023,0.079 -0.058,0.1671 -0.1443,0.3576 -0.2623,0.6735 -0.3088,0.8268 -0.1021,0.33710005 -0.1754,0.74650005 -0.2515,1.40600005 l -0.01,0.075 0.039,-0.012 c 0.022,-0.01 0.1406,-0.013 0.2643,-0.014 0.2682,0 0.4992,-0.018 0.4992,-0.033 0,-0.033 0.1,-0.045 0.4028,-0.048 0.2958,0 0.3285,-0.01 0.4127,-0.036 0.074,-0.026 0.1198,-0.033 0.239,-0.033 0.081,0 0.1902,0 0.2421,0.011 0.089,0.01 0.097,0.01 0.1382,-0.026 0.024,-0.02 0.052,-0.037 0.063,-0.037 0.021,0 0.063,0.038 0.063,0.057 0,0.022 0.05,0.04 0.1328,0.048 0.044,0 0.086,0.011 0.093,0.015 0.029,0.018 0.01,0.048 -0.047,0.069 -0.077,0.029 -0.1296,0.03 -0.3674,0.01 -0.227,-0.021 -0.3825,-0.01 -0.5225,0.05 -0.095,0.038 -0.3702,0.09 -0.4755,0.091 -0.067,0 -0.068,7e-4 -0.059,0.039 0.01,0.021 0.026,0.08 0.046,0.1298 0.033,0.085 0.036,0.1034 0.029,0.2602 -0.01,0.1745 -0.022,0.2258 -0.098,0.3336 -0.022,0.031 -0.026,0.058 -0.023,0.1355 v 0.097 l 0.1757,-0.1062 c 0.6556,-0.396 1.2527,-0.5905 2.1232,-0.6914 0.2967,-0.034 0.464,-0.048 0.464,-0.039 0,0 -0.025,0.051 -0.055,0.1037 l -0.055,0.096 h -0.188 c -0.395,0.01 -0.8604,0.1008 -1.5238,0.3129 -0.2415,0.077 -0.353,0.1201 -0.5413,0.2081 -0.1465,0.068 -0.3818,0.2045 -0.4078,0.2358 -0.01,0.011 -0.032,0.098 -0.051,0.1927 -0.019,0.095 -0.047,0.2063 -0.062,0.2472 -0.015,0.041 -0.028,0.076 -0.028,0.078 0,0 0.1093,0 0.2429,0 0.2942,-0.01 0.4739,0.017 0.7148,0.096 0.4206,0.1379 0.7771,0.391 1.1121,0.7893 0.1058,0.1259 0.2221,0.3 0.2221,0.3328 0,0.015 -0.017,0.052 -0.039,0.083 -0.091,0.1326 -0.1662,0.2283 -0.1792,0.2284 -0.01,0 -0.036,-0.033 -0.063,-0.073 -0.1186,-0.1759 -0.3039,-0.3865 -0.4671,-0.5311 -0.3176,-0.2812 -0.6785,-0.4614 -1.0585,-0.5285 -0.2101,-0.037 -0.592,-0.034 -0.8225,0.01 -0.2579,0.045 -0.4897,0.1117 -0.5076,0.1452 -0.011,0.021 -0.019,0.024 -0.033,0.012 -0.044,-0.036 -0.701,0.27 -1.0199,0.4748 -0.151,0.097 -0.332,0.221 -0.443,0.3038 -0.1277,0.095 -0.4327,0.3519 -0.484,0.4074 -0.042,0.045 -0.062,0.047 -0.05,0.01 z m 2.16,-1.5614 c 0.021,-0.01 0.077,-0.071 0.1252,-0.1364 0.099,-0.1348 0.3138,-0.3604 0.4455,-0.4677 0.084,-0.068 0.088,-0.074 0.088,-0.134 0,-0.058 0,-0.062 -0.032,-0.052 -0.017,0.01 -0.061,0.014 -0.098,0.017 -0.065,0.01 -0.068,0.01 -0.1431,-0.073 -0.099,-0.1025 -0.1126,-0.1533 -0.054,-0.2059 0.023,-0.021 0.053,-0.044 0.067,-0.051 0.019,-0.011 0.021,-0.019 0.01,-0.041 -0.019,-0.035 -0.01,-0.053 0.049,-0.072 0.059,-0.02 0.096,0 0.086,0.057 0,0.026 0,0.044 0.022,0.062 0.027,0.023 0.028,0.023 0.01,5e-4 -0.012,-0.016 -0.016,-0.041 -0.01,-0.07 0.024,-0.1228 0.046,-0.4404 0.032,-0.458 -0.034,-0.042 -0.1194,-0.069 -0.5292,-0.1641 -0.1045,-0.024 -0.1837,-0.023 -0.2585,0.01 -0.038,0.014 -0.038,0.015 -0.038,0.1588 5e-4,0.3086 0.049,0.888 0.1129,1.3537 0.045,0.3235 0.037,0.305 0.1142,0.27 z m -0.046,-0.042 c -6e-4,-0.01 0,-0.03 -0.01,-0.046 -0.016,-0.09 -0.066,-0.4884 -0.092,-0.7241 -0.039,-0.3612 -0.055,-0.9254 -0.027,-0.9432 0.056,-0.036 0.3703,0.01 0.5963,0.086 0.1353,0.046 0.141,0.053 0.138,0.1795 0,0.06 -0.01,0.1343 -0.011,0.1662 -0.01,0.055 -0.011,0.058 -0.065,0.065 -0.079,0.011 -0.1254,0.044 -0.1254,0.091 0,0.027 -0.015,0.05 -0.049,0.078 -0.073,0.058 -0.069,0.1213 0.013,0.23 0.034,0.045 0.074,0.089 0.088,0.098 0.043,0.026 0.1069,0.035 0.1553,0.021 0.042,-0.012 0.046,-0.011 0.046,0.019 0,0.023 -0.032,0.059 -0.1099,0.1246 -0.147,0.1241 -0.2848,0.271 -0.4006,0.4272 -0.099,0.1336 -0.1486,0.1754 -0.1514,0.1278 z m 0.2698,-0.3587 c 0.043,-0.046 0.1224,-0.1237 0.1757,-0.173 0.1112,-0.1027 0.1172,-0.1116 0.076,-0.1116 -0.065,0 -0.1535,-0.072 -0.2311,-0.1882 -0.027,-0.04 -0.037,-0.073 -0.037,-0.1219 0,-0.059 0.01,-0.073 0.049,-0.1136 0.027,-0.026 0.049,-0.06 0.049,-0.077 0,-0.047 0.042,-0.088 0.1195,-0.1167 l 0.07,-0.026 0.01,-0.096 c 0.013,-0.1219 0.01,-0.1507 -0.041,-0.1721 -0.076,-0.034 -0.4342,-0.1141 -0.5139,-0.1141 h -0.082 v 0.1935 c 0,0.2826 0.069,1.0551 0.1214,1.3487 l 0.01,0.045 0.072,-0.096 c 0.04,-0.053 0.108,-0.1338 0.1514,-0.1797 z m 0.1109,0.2995 c 0.097,-0.026 0.1583,-0.048 0.1371,-0.049 -0.062,0 -0.044,-0.029 0.021,-0.032 h 0.06 l -0.053,-0.01 c -0.079,-0.01 -0.063,-0.028 0.031,-0.039 0.092,-0.011 0.088,-0.01 0.1122,-0.1397 0.016,-0.092 0.02,-0.1908 0.01,-0.1908 0,0 -0.066,0.05 -0.1371,0.1107 -0.1521,0.1309 -0.3975,0.3963 -0.3651,0.395 0.01,0 0.091,-0.022 0.1873,-0.048 z m 0.1647,-0.247 c 0.059,-0.056 0.092,-0.071 0.082,-0.038 0,0.01 -0.01,0.035 -0.014,0.056 -0.01,0.035 -0.014,0.039 -0.068,0.038 l -0.06,-6e-4 z m -1.4673,1.4803 c 0,-0.014 0.021,-0.1126 0.039,-0.2202 l 0.032,-0.1955 0.2084,-0.1021 c 0.1726,-0.084 0.2814,-0.1324 0.4833,-0.2124 0.01,0 0.024,0.017 0.034,0.047 l 0.018,0.053 0.032,-0.073 c 0.018,-0.04 0.036,-0.073 0.04,-0.073 0,0 0.079,-0.019 0.166,-0.043 0.363,-0.099 0.7762,-0.1244 1.1081,-0.068 0.4405,0.075 0.8242,0.2877 1.1859,0.6582 0.104,0.1066 0.1267,0.1379 0.1358,0.1877 0.01,0.033 0.01,0.062 0.01,0.065 0,0 -0.3107,-0.1541 -0.7588,-0.3921 -0.054,-0.029 -0.2344,-0.1235 -0.4007,-0.2104 -0.1663,-0.087 -0.3656,-0.1917 -0.4429,-0.2327 l -0.1406,-0.075 -0.3726,0.1964 c -0.2049,0.1081 -0.4644,0.2446 -0.5765,0.3034 -0.1121,0.059 -0.2418,0.1272 -0.2882,0.1519 -0.2451,0.1307 -0.4964,0.2602 -0.5052,0.2602 -0.01,0 -0.01,-0.011 0,-0.025 z m 0.2604,-0.1674 c 0.098,-0.051 0.2819,-0.1486 0.4095,-0.216 0.1276,-0.067 0.3269,-0.1721 0.4429,-0.2326 0.116,-0.061 0.2615,-0.1378 0.3234,-0.1717 l 0.1124,-0.062 -0.098,0.01 c -0.1024,0.01 -0.361,0.064 -0.4716,0.1 -0.061,0.02 -0.066,0.026 -0.1139,0.1295 l -0.05,0.1088 -0.036,-0.08 -0.036,-0.08 -0.1451,0.061 c -0.1091,0.046 -0.4532,0.2099 -0.4708,0.2245 -0.01,0.01 -0.055,0.3042 -0.05,0.3042 0,0 0.086,-0.042 0.1838,-0.093 z m 3.0944,0.027 c -0.4168,-0.4397 -0.8419,-0.6644 -1.3492,-0.7133 l -0.091,-0.01 0.3304,0.1748 c 0.7612,0.4027 1.1604,0.6125 1.1665,0.613 0,0 -0.022,-0.029 -0.056,-0.066 z m -3.2153,-0.6983 c 0.01,-0.052 0.032,-0.2006 0.1233,-0.719 0.015,-0.085 0.035,-0.1995 0.044,-0.2543 l 0.016,-0.1 -0.308,-0.3009 c -0.1694,-0.1655 -0.4282,-0.4188 -0.5751,-0.5628 -0.147,-0.1441 -0.3269,-0.3196 -0.3998,-0.3901 -0.073,-0.07 -0.13,-0.1304 -0.1266,-0.1334 0,0 0.1896,-0.031 0.4139,-0.063 0.3213,-0.046 1.1909,-0.1719 1.3006,-0.1887 0.025,0 0.025,-0.01 -0.01,0.2457 -0.013,0.1059 -0.023,0.1953 -0.023,0.1986 0,0 -0.071,0 -0.1581,0 -0.123,-0.01 -0.1708,-0.014 -0.2145,-0.036 -0.046,-0.024 -0.088,-0.03 -0.2355,-0.035 l -0.1793,-0.01 v 0.044 c 0,0.054 0.046,0.1036 0.1302,0.1418 0.046,0.021 0.092,0.027 0.2058,0.027 0.1009,0 0.1748,0.01 0.239,0.027 0.051,0.015 0.1166,0.031 0.1456,0.036 l 0.053,0.01 5e-4,0.08 c 0,0.3449 0.054,1.2209 0.092,1.5463 0.012,0.1026 0.02,0.1925 0.017,0.1997 0,0.01 -0.1303,0.076 -0.2839,0.1528 l -0.2794,0.1396 z m 0.2949,-0.1686 0.1933,-0.095 -0.01,-0.052 c -0.035,-0.2602 -0.077,-0.8807 -0.089,-1.3305 l -0.01,-0.3507 -0.084,-0.027 c -0.057,-0.018 -0.1439,-0.029 -0.2672,-0.034 -0.1471,-0.01 -0.1965,-0.013 -0.2533,-0.038 -0.1281,-0.057 -0.1861,-0.1419 -0.1732,-0.2548 0.01,-0.05 0.035,-0.058 0.2226,-0.06 0.1361,0 0.2385,0.017 0.3192,0.059 0.03,0.015 0.08,0.023 0.1486,0.023 h 0.1036 l 0.016,-0.1509 c 0.01,-0.083 0.015,-0.1518 0.013,-0.1528 0,-0.001 -0.1227,0.016 -0.2696,0.037 -0.147,0.021 -0.4728,0.068 -0.7242,0.1045 -0.2513,0.036 -0.4715,0.07 -0.4893,0.075 -0.03,0.01 -0.023,0.019 0.091,0.1291 0.1765,0.1699 1.1565,1.1263 1.1875,1.1589 0.032,0.033 0.032,0.033 0,0.2329 -0.054,0.3213 -0.1278,0.7531 -0.1358,0.7926 0,0.022 0,0.038 0,0.034 0.01,0 0.099,-0.049 0.2054,-0.1009 z m 2.7734,0.018 c -0.1282,-0.092 -0.4009,-0.2246 -0.5695,-0.2771 -0.2312,-0.072 -0.3743,-0.093 -0.651,-0.093 -0.2438,-7e-4 -0.25,0 -0.241,-0.029 0.01,-0.015 0.029,-0.1167 0.053,-0.225 0.026,-0.115 0.053,-0.2038 0.065,-0.2137 0.057,-0.045 0.334,-0.1941 0.477,-0.2573 0.1821,-0.08 0.3519,-0.1402 0.6553,-0.2304 0.3316,-0.099 0.7369,-0.1974 0.7512,-0.1831 0,0 -0.1247,0.1332 -0.2847,0.2885 -0.3218,0.3124 -0.3073,0.2887 -0.2762,0.45 0.017,0.091 0.125,0.7143 0.136,0.7893 0,0.029 0,0.053 0,0.052 -0.01,-6e-4 -0.057,-0.032 -0.1108,-0.071 z m 0.035,-0.1265 c -0.01,-0.042 -0.043,-0.2434 -0.078,-0.4479 l -0.063,-0.3719 0.2431,-0.2356 c 0.1337,-0.1296 0.2355,-0.2359 0.2261,-0.2363 -0.052,0 -0.5078,0.1253 -0.8267,0.2307 -0.2672,0.088 -0.4767,0.1797 -0.6922,0.3021 -0.1477,0.084 -0.1585,0.093 -0.1664,0.1402 0,0.028 -0.023,0.1118 -0.04,0.1868 l -0.032,0.1362 0.1158,-0.01 c 0.2012,-0.014 0.5245,0.032 0.7656,0.1103 0.1086,0.035 0.3695,0.1598 0.4778,0.2284 0.043,0.027 0.079,0.047 0.081,0.045 0,0 0,-0.038 -0.011,-0.08 z m -1.3842,-0.9767 c 0,-0.035 0.027,-0.095 0.05,-0.1329 0.059,-0.096 0.067,-0.1332 0.07,-0.3278 0,-0.1513 -6e-4,-0.177 -0.026,-0.2205 -0.016,-0.027 -0.033,-0.073 -0.039,-0.1019 l -0.01,-0.053 0.082,-5e-4 c 0.096,-5e-4 0.3553,-0.054 0.4761,-0.1 0.073,-0.027 0.1125,-0.032 0.2882,-0.032 0.1122,-6e-4 0.2735,0 0.3586,0.01 0.141,0.01 0.1604,0 0.2203,-0.026 0.036,-0.018 0.07,-0.043 0.074,-0.055 0.016,-0.042 -0.039,-0.076 -0.139,-0.087 -0.081,-0.01 -0.099,-0.016 -0.1342,-0.055 -0.051,-0.056 -0.1001,-0.058 -0.1591,-0.01 -0.047,0.04 -0.069,0.04 -0.2523,0 -0.1074,-0.021 -0.2439,0 -0.3879,0.045 -0.07,0.025 -0.1147,0.028 -0.3722,0.027 -0.2929,0 -0.3878,0.01 -0.4335,0.051 -0.018,0.016 -0.093,0.022 -0.3515,0.027 -0.1808,0 -0.3399,0.01 -0.3534,0.015 -0.03,0.01 -0.031,0.017 0,-0.2316 l 0.029,-0.2057 0.1485,-0.3023 c 0.3049,-0.6204 0.73,-1.46960005 0.7391,-1.47640005 0.01,0 0.043,0.063 0.085,0.1477 0.042,0.085 0.237,0.4811 0.434,0.88010005 l 0.3582,0.7255 0.118,0.016 c 0.065,0.01 0.2256,0.032 0.357,0.052 0.1315,0.02 0.3055,0.045 0.3867,0.056 0.081,0.011 0.2552,0.036 0.3867,0.056 0.1314,0.02 0.3339,0.049 0.4499,0.065 0.116,0.016 0.2191,0.034 0.2291,0.039 0.012,0.01 -0.064,0.09 -0.2349,0.2576 -0.2426,0.2374 -0.2558,0.248 -0.3205,0.2566 -0.1991,0.026 -0.7284,0.1301 -0.8253,0.1616 -0.024,0.01 -0.1037,0.033 -0.1771,0.055 -0.2751,0.084 -0.66,0.2611 -0.9801,0.4508 -0.079,0.047 -0.1469,0.085 -0.1512,0.085 0,0 0,-0.029 0,-0.064 z m 0.2309,-0.1328 c 0.239,-0.1399 0.6337,-0.3154 0.8951,-0.3979 0.2327,-0.074 0.5872,-0.1505 0.9544,-0.2071 l 0.099,-0.015 0.2069,-0.2037 c 0.1138,-0.1121 0.1992,-0.2063 0.1898,-0.2094 -0.016,-0.01 -0.119,-0.02 -0.8748,-0.1273 -0.1856,-0.026 -0.3976,-0.057 -0.471,-0.069 -0.073,-0.012 -0.2064,-0.031 -0.2953,-0.043 -0.089,-0.012 -0.1732,-0.025 -0.1873,-0.03 -0.022,-0.01 -0.4327,-0.8163 -0.7783,-1.53550005 -0.042,-0.088 -0.079,-0.1569 -0.083,-0.1535 0,0 -0.1917,0.3789 -0.4185,0.83450005 -0.4428,0.8893 -0.4214,0.8367 -0.4532,1.118 l -0.01,0.079 h 0.1947 c 0.2076,0 0.426,-0.023 0.5181,-0.059 0.044,-0.017 0.1203,-0.022 0.3613,-0.022 0.283,-6e-4 0.313,0 0.4148,-0.035 0.1578,-0.049 0.2852,-0.058 0.4244,-0.03 l 0.1145,0.023 0.061,-0.036 c 0.034,-0.02 0.078,-0.036 0.099,-0.036 0.052,0 0.1172,0.036 0.1281,0.07 0.01,0.023 0.021,0.028 0.079,0.028 0.116,0 0.1834,0.039 0.203,0.1165 0.014,0.057 -0.062,0.1245 -0.1776,0.157 -0.08,0.022 -0.1056,0.023 -0.2654,0.01 -0.2558,-0.025 -0.4421,-0.013 -0.591,0.04 -0.1102,0.039 -0.34,0.087 -0.4172,0.087 -0.041,0 -0.041,0.01 0,0.094 0.034,0.067 0.035,0.072 0.024,0.2664 -0.011,0.1951 -0.012,0.1998 -0.063,0.2858 -0.029,0.048 -0.052,0.091 -0.052,0.094 0,0 0.02,-0.01 0.046,-0.021 0.025,-0.015 0.08,-0.048 0.1224,-0.073 z"
       id="path81" /></g></svg>
