<?xml version="1.0" encoding="UTF-8" standalone="no"?>
<!-- Created with Inkscape (http://www.inkscape.org/) -->

<svg
   width="6mm"
   height="6mm"
   viewBox="0 0 6 6"
   version="1.1"
   id="svg1"
   xml:space="preserve"
   sodipodi:docname="ernest.svg"
   inkscape:version="1.4.4 (dcaf3e7d9e, 2026-05-05)"
   xmlns:inkscape="http://www.inkscape.org/namespaces/inkscape"
   xmlns:sodipodi="http://sodipodi.sourceforge.net/DTD/sodipodi-0.dtd"
   xmlns="http://www.w3.org/2000/svg"
   xmlns:svg="http://www.w3.org/2000/svg"><sodipodi:namedview
     id="namedview1"
     pagecolor="#ffffff"
     bordercolor="#000000"
     borderopacity="0.25"
     inkscape:showpageshadow="2"
     inkscape:pageopacity="0.0"
     inkscape:pagecheckerboard="0"
     inkscape:deskcolor="#d1d1d1"
     inkscape:document-units="mm"
     inkscape:zoom="0.0752227"
     inkscape:cx="2765.1228"
     inkscape:cy="-458.63815"
     inkscape:window-width="1920"
     inkscape:window-height="1024"
     inkscape:window-x="0"
     inkscape:window-y="32"
     inkscape:window-maximized="1"
     inkscape:current-layer="layer1-4" /><defs
     id="defs1" /><g
     inkscape:label="Layer 1"
     inkscape:groupmode="layer"
     id="layer1"><text
       xml:space="preserve"
       style="font-style:normal;font-variant:normal;font-weight:normal;font-stretch:normal;font-size:14.1111px;line-height:0.9;font-family:'Fredoka dingbats';-inkscape-font-specification:'Fredoka dingbats';letter-spacing:-0.291042px;writing-mode:lr-tb;direction:ltr;fill:#1e1f27;fill-opacity:1;stroke-width:2;stroke-linecap:round;stroke-linejoin:round"
       x="-12.363758"
       y="-3.3485177"
       id="text1"><tspan
         sodipodi:role="line"
         style="stroke-width:2"
         x="-12.363758"
         y="-3.3485177"
         id="tspan2" /></text><g
       inkscape:label="Calque 1"
       id="layer1-4"
       transform="translate(-686.03125,-486.29583)"><g
         id="g79"
         transform="matrix(0.42856595,0,0,0.42856595,686.03125,487.79583)"><path
           id="rect1"
           style="display:inline;fill:#1e1f27;fill-opacity:1;stroke-width:0.0169566;stroke-linecap:round;stroke-linejoin:round;paint-order:markers fill stroke"
           d="m 0,0 v 0.99993896 0.99993894 0.999939 0.999939 1.0004557 0.999939 0.9999389 H 0.99993896 1.9998779 V 6.0001506 H 0.99993896 V 5.0002116 3.9997559 2.9998169 1.9998779 0.99993896 H 1.9998779 V 0 H 0.99993896 Z M 1.9998779,0.99993896 V 1.9998779 h 0.999939 V 0.99993896 Z m 0.999939,0.99993894 v 0.999939 h 0.999939 1.0004557 V 1.9998779 H 3.9997559 Z m 2.0003947,0 h 0.999939 0.9999389 0.999939 V 0.99993896 H 7.0000895 6.0001506 5.0002116 Z M 8.0000285,0.99993896 h 0.9999389 0.999939 0.9999386 0.999939 V 0 H 10.999845 9.9999064 8.9999674 8.0000285 Z m 3.9997555,0 V 1.9998779 H 13.00024 V 0.99993896 Z M 13.00024,1.9998779 v 0.999939 0.999939 1.0004557 0.999939 h 0.999939 V 5.0002116 3.9997559 2.9998169 1.9998779 Z m 0,4.0002727 H 11.999784 10.999845 9.9999064 8.9999674 8.0000285 7.0000895 v 0.9999389 h 0.999939 0.9999389 0.999939 0.9999386 0.999939 1.000456 z m -6.0001505,0 V 5.0002116 H 6.0001506 5.0002116 v 0.999939 h 0.999939 z M 5.0002116,5.0002116 V 3.9997559 H 3.9997559 2.9998169 v 1.0004557 h 0.999939 z m -2.0003947,0 h -0.999939 v 0.999939 h 0.999939 z" /><path
           id="rect72"
           style="display:inline;fill:#1e1f27;fill-opacity:1;stroke-width:1.4;stroke-linecap:round;stroke-linejoin:round;paint-order:markers fill stroke"
           d="m 9.9999064,2.9998169 v 0.999939 1.0004557 H 10.999845 V 3.9997559 2.9998169 Z" /></g></g></g></svg>
