<?xml version="1.0" encoding="UTF-8" standalone="no"?>
<!-- Created with Inkscape (http://www.inkscape.org/) -->

<svg
   width="6mm"
   height="6mm"
   viewBox="0 0 6 6"
   version="1.1"
   id="svg1"
   xml:space="preserve"
   sodipodi:docname="geo.svg"
   inkscape:version="1.4.4 (dcaf3e7d9e, 2026-05-05)"
   xmlns:inkscape="http://www.inkscape.org/namespaces/inkscape"
   xmlns:sodipodi="http://sodipodi.sourceforge.net/DTD/sodipodi-0.dtd"
   xmlns="http://www.w3.org/2000/svg"
   xmlns:svg="http://www.w3.org/2000/svg"><sodipodi:namedview
     id="namedview1"
     pagecolor="#ffffff"
     bordercolor="#000000"
     borderopacity="0.25"
     inkscape:showpageshadow="2"
     inkscape:pageopacity="0.0"
     inkscape:pagecheckerboard="0"
     inkscape:deskcolor="#d1d1d1"
     inkscape:document-units="mm"
     inkscape:zoom="13.284333"
     inkscape:cx="10.087071"
     inkscape:cy="6.3608766"
     inkscape:window-width="1920"
     inkscape:window-height="1024"
     inkscape:window-x="0"
     inkscape:window-y="32"
     inkscape:window-maximized="1"
     inkscape:current-layer="layer1" /><defs
     id="defs1" /><g
     inkscape:label="Layer 1"
     inkscape:groupmode="layer"
     id="layer1"><text
       xml:space="preserve"
       style="font-style:normal;font-variant:normal;font-weight:normal;font-stretch:normal;font-size:14.1111px;line-height:0.9;font-family:'Fredoka dingbats';-inkscape-font-specification:'Fredoka dingbats';letter-spacing:-0.291042px;writing-mode:lr-tb;direction:ltr;fill:#1e1f27;fill-opacity:1;stroke-width:2;stroke-linecap:round;stroke-linejoin:round"
       x="-12.363758"
       y="-3.3485177"
       id="text1"><tspan
         sodipodi:role="line"
         style="stroke-width:2"
         x="-12.363758"
         y="-3.3485177"
         id="tspan2" /></text><path
       style="fill:#1e1f27;fill-opacity:1;stroke-width:0.033003"
       d="m 2.9464494,5.9916656 c -0.260682,-0.02305 -0.724575,-0.148475 -1.092663,-0.295417 -0.525775,-0.209892 -1.03638799,-0.614429 -1.34992699,-1.06949 -0.169066,-0.245377 -0.28081,-0.468293 -0.376518,-0.751105 -0.06284,-0.185679 -0.09587,-0.351763 -0.118944,-0.597997 -0.02421,-0.258323 0.005,-0.613471 0.07324,-0.890669 0.07001,-0.284387 0.130056,-0.445026 0.279815,-0.748582 0.175079,-0.354883 0.338419,-0.603106 0.608598,-0.92487497 0.36180299,-0.430886 0.62257799,-0.592516 1.08136499,-0.670234 0.201277,-0.0341 0.295391,-0.03878 0.79025,-0.03932 0.513044,-5.6e-4 0.515249,-4.27e-4 0.797768,0.04801 0.308349,0.05286 0.515281,0.11829 0.83076,0.262662 0.409423,0.187364 0.886633,0.484017 1.010691,0.628288 0.116816,0.13584897 0.197769,0.39849097 0.139757,0.45342197 -0.03214,0.03043 -0.143622,0.08182 -0.254291,0.117225 -0.07213,0.02307 -0.112998,0.04136 -0.134355,0.06011 -0.03632,0.03189 -0.02635,0.04106 -0.112667,-0.103568 -0.0655,-0.109744 -0.111138,-0.170003 -0.231461,-0.305621 -0.123127,-0.13878 -0.208773,-0.20783597 -0.326962,-0.26362997 -0.03788,-0.01788 -0.141576,-0.07164 -0.230425,-0.119446 -0.454961,-0.244823 -0.868115,-0.418593 -1.183193,-0.497642 -0.370618,-0.09298 -0.654166,-0.101698 -1.027552,-0.03158 -0.17733,0.0333 -0.554263,0.203392 -0.7311,0.329907 -0.381,0.27258 -0.69414599,0.68345597 -0.88974899,1.16743397 -0.04616,0.114217 -0.136446,0.409014 -0.158398,0.517202 -0.07762,0.382552 -0.09002,0.752277 -0.03901,1.163718 0.03244,0.26164 0.118449,0.540991 0.244659,0.794616 0.121785,0.244733 0.191469,0.349766 0.326157,0.491614 0.09107,0.09591 0.13386599,0.129086 0.32518999,0.252082 0.695947,0.4474 1.021987,0.614427 1.435124,0.735198 0.261132,0.07634 0.50924,0.09886 0.833395,0.07565 0.179716,-0.01287 0.266563,-0.02431 0.406041,-0.05351 0.26482,-0.05543 0.392906,-0.100491 0.598145,-0.210441 0.409622,-0.219439 0.773553,-0.643629 0.972411,-1.133418 0.102618,-0.252751 0.16138,-0.458453 0.201005,-0.703638 0.04348,-0.269017 0.0521,-0.51406 0.02654,-0.754614 -0.0074,-0.06964 -0.01632,-0.181125 -0.01984,-0.247748 -0.0059,-0.112207 -0.0079,-0.122342 -0.02664,-0.13753 -0.02717,-0.022 -0.104161,-0.02165 -0.221025,0.001 -0.11804,0.0229 -0.166753,0.02537 -0.696691,0.03524 -0.247335,0.0046 -0.496853,0.01243 -0.554485,0.01737 -0.284028,0.02437 -0.577428,0.07978 -0.737858,0.139335 -0.04082,0.01516 -0.103557,0.03734 -0.139411,0.04929 -0.03585,0.01196 -0.07057,0.02621 -0.07716,0.03167 -0.01968,0.01633 -0.0061,0.05315 0.05992,0.162018 0.128201,0.211523 0.276494,0.530273 0.356256,0.76576 0.06491,0.191627 0.129943,0.489148 0.153751,0.703362 0.0067,0.06027 0.01485,0.120221 0.01811,0.133222 0.0087,0.03464 -0.0028,0.08212 -0.02477,0.102749 -0.02734,0.02562 -0.175295,0.112879 -0.191393,0.112879 -0.01988,0 -0.03102,-0.01729 -0.05414,-0.08402 -0.01144,-0.03303 -0.03692,-0.100281 -0.05662,-0.149438 -0.04883,-0.121838 -0.131886,-0.417982 -0.175715,-0.626507 -0.04395,-0.209098 -0.12685,-0.5259 -0.170268,-0.650683 -0.03541,-0.101765 -0.120896,-0.286224 -0.163209,-0.352162 -0.02713,-0.04228 -0.02782,-0.04268 -0.06466,-0.03763 -0.08634,0.01184 -0.446359,0.147029 -0.760237,0.285487 -0.196901,0.08686 -0.22137,0.100792 -0.370128,0.210788 -0.33829,0.250145 -0.529447,0.347583 -0.681897,0.347583 -0.09016,0 -0.11392699,-0.0214 -0.18691899,-0.168346 -0.03208,-0.06458 -0.07187,-0.130488 -0.09188,-0.152199 -0.01942,-0.02106 -0.03401,-0.04498 -0.03244,-0.05315 0.006,-0.0311 0.36815199,-0.213684 0.52524399,-0.264805 0.130152,-0.04236 0.673087,-0.179011 0.879882,-0.221466 0.167406,-0.03437 0.359945,-0.08315 0.540214,-0.13688 0.111337,-0.03318 0.127569,-0.03925 0.156043,-0.05832 0.01746,-0.01169 -0.05973,-0.201154 -0.249624,-0.612659 -0.175963,-0.381326 -0.261806,-0.601891 -0.310959,-0.798983 -0.03142,-0.125997 -0.05835,-0.26205 -0.06414,-0.32411197 l -0.005,-0.05385 0.04123,0.0094 c 0.03069,0.007 0.05724,0.0066 0.103777,-0.0015 0.10969,-0.01913 0.209734,-0.02277 0.221927,-0.0081 0.02442,0.02943 0.06533,0.22268197 0.137338,0.64877297 0.07897,0.467274 0.105159,0.570348 0.21599,0.849963 0.07157,0.180568 0.09904,0.228445 0.131086,0.228445 0.0098,0 0.03602,-0.01112 0.05816,-0.02471 0.125682,-0.07712 0.738535,-0.276501 1.118389,-0.363843 0.13091,-0.0301 0.617908,-0.118151 0.899681,-0.162664 0.122467,-0.01935 0.27156,-0.04289 0.331318,-0.05233 0.05976,-0.0094 0.139837,-0.01797 0.177952,-0.01898 l 0.0693,-0.0018 0.01611,0.03066 c 0.01814,0.03451 0.134763,0.487384 0.168762,0.655306 0.05511,0.272207 0.07668,0.49725 0.07653,0.798485 -9.9e-5,0.175524 -0.0038,0.237716 -0.02293,0.382833 -0.04514,0.342672 -0.08547,0.483412 -0.211432,0.737695 -0.129906,0.262252 -0.297569,0.500787 -0.49989,0.711193 -0.343835,0.357575 -0.650348,0.524377 -1.101172,0.599248 -0.131559,0.02185 -0.440924,0.05651 -0.667915,0.07484 -0.146639,0.01184 -0.453205,0.01594 -0.550206,0.0074 z"
       id="path81" /></g></svg>
