<?xml version="1.0" encoding="UTF-8" standalone="no"?>
<!-- Created with Inkscape (http://www.inkscape.org/) -->

<svg
   width="6mm"
   height="6mm"
   viewBox="0 0 6 6"
   version="1.1"
   id="svg1"
   xml:space="preserve"
   sodipodi:docname="home.svg"
   inkscape:version="1.4.4 (dcaf3e7d9e, 2026-05-05)"
   xmlns:inkscape="http://www.inkscape.org/namespaces/inkscape"
   xmlns:sodipodi="http://sodipodi.sourceforge.net/DTD/sodipodi-0.dtd"
   xmlns="http://www.w3.org/2000/svg"
   xmlns:svg="http://www.w3.org/2000/svg"><sodipodi:namedview
     id="namedview1"
     pagecolor="#ffffff"
     bordercolor="#000000"
     borderopacity="0.25"
     inkscape:showpageshadow="2"
     inkscape:pageopacity="0.0"
     inkscape:pagecheckerboard="0"
     inkscape:deskcolor="#d1d1d1"
     inkscape:document-units="mm"
     inkscape:zoom="0.33044059"
     inkscape:cx="-372.2303"
     inkscape:cy="-534.13534"
     inkscape:window-width="1920"
     inkscape:window-height="1024"
     inkscape:window-x="0"
     inkscape:window-y="32"
     inkscape:window-maximized="1"
     inkscape:current-layer="layer1" /><defs
     id="defs1" /><g
     inkscape:label="Layer 1"
     inkscape:groupmode="layer"
     id="layer1"><path
       style="fill:#1e1f27;fill-opacity:1;stroke-width:0.0743513"
       d="m 0.52145322,5.9477782 c -0.04106,-0.052198 -0.04107,-0.052894 -0.03585,-1.8489795 l 0.0052,-1.7967616 0.34918,-0.349581 0.34917998,-0.34958 V 0.97848515 c 0,-0.598161 0.0017,-0.626043 0.03934,-0.663735 0.03676,-0.03676 0.06557,-0.03934 0.438913,-0.03934 0.488908,0 0.485677,-0.0015 0.485677,0.2213 v 0.141079 l 0.32102,-0.318894 c 0.274413,-0.272597 0.329755,-0.318895 0.381188,-0.318895 0.05164,0 0.241144,0.16062 1.336357,1.13263795 0.701904,0.6229511 1.287124,1.151886 1.300489,1.17541 0.01878,0.03306 0.02437,0.445248 0.02459,1.8155286 2.97e-4,1.763881 7.4e-5,1.7730163 -0.04048,1.8245901 l -0.04077,0.051833 H 2.9989992 0.56251022 Z M 1.3268852,4.6568323 c 0,-0.9345621 0.0038,-1.0732078 0.03062,-1.1114754 l 0.03062,-0.043722 0.692327,2.97e-4 c 0.38078,1.64e-4 0.702067,0.0068 0.713972,0.01475 0.06343,0.042352 0.06688,0.1019025 0.06688,1.1541423 v 1.0537561 h 1.190163 1.190164 V 4.1901549 2.6557291 H 2.9990092 0.75638622 v 1.5344258 1.5344262 h 0.28524498 0.285246 z m 2.14864,0.053524 c -0.04343,-0.030418 -0.04372,-0.034353 -0.04372,-0.587115 0,-0.5141362 0.0027,-0.5589692 0.03597,-0.5890492 0.03187,-0.02884 0.106665,-0.03256 0.655968,-0.03256 0.575655,0 0.622321,0.0026 0.65255,0.035976 0.02864,0.031651 0.03256,0.1014084 0.03256,0.5803279 0,0.5181231 -0.0019,0.5462484 -0.03934,0.5836969 -0.03764,0.03764 -0.06557,0.039344 -0.644802,0.039344 -0.51615,0 -0.611909,-0.00452 -0.649181,-0.030624 z M 4.5334422,4.1110806 V 3.756591 l -0.418032,0.00531 -0.418033,0.00531 -0.0054,0.3491802 -0.0054,0.3491804 h 0.423405 0.423405 z m -1.94754,0.6397355 V 3.7770456 h -0.491803 -0.491804 v 0.9737705 0.9737705 h 0.491804 0.491803 z m 2.517586,-2.437326 c -0.127343,-0.123237 -2.226353,-1.97906795 -2.238396,-1.97906795 -0.0076,0 -0.469597,0.455902 -1.026731,1.01311495 L 0.82538922,2.3606521 H 2.9888052 5.1522212 Z M 1.8777052,0.73313415 v -0.182318 h -0.206557 -0.206558 v 0.388173 0.38817295 l 0.206558,-0.205854 0.206557,-0.20585495 z"
       id="path1" /></g></svg>
