<?xml version="1.0" encoding="UTF-8" standalone="no"?>
<!-- Created with Inkscape (http://www.inkscape.org/) -->

<svg
   width="6mm"
   height="6mm"
   viewBox="0 0 6 6"
   version="1.1"
   id="svg1"
   xml:space="preserve"
   sodipodi:docname="icam.svg"
   inkscape:version="1.4.4 (dcaf3e7d9e, 2026-05-05)"
   xmlns:inkscape="http://www.inkscape.org/namespaces/inkscape"
   xmlns:sodipodi="http://sodipodi.sourceforge.net/DTD/sodipodi-0.dtd"
   xmlns="http://www.w3.org/2000/svg"
   xmlns:svg="http://www.w3.org/2000/svg"><sodipodi:namedview
     id="namedview1"
     pagecolor="#ffffff"
     bordercolor="#000000"
     borderopacity="0.25"
     inkscape:showpageshadow="2"
     inkscape:pageopacity="0.0"
     inkscape:pagecheckerboard="0"
     inkscape:deskcolor="#d1d1d1"
     inkscape:document-units="mm"
     inkscape:zoom="17.611746"
     inkscape:cx="15.557799"
     inkscape:cy="10.192062"
     inkscape:window-width="1920"
     inkscape:window-height="1024"
     inkscape:window-x="0"
     inkscape:window-y="32"
     inkscape:window-maximized="1"
     inkscape:current-layer="layer1" /><defs
     id="defs1" /><g
     inkscape:label="Layer 1"
     inkscape:groupmode="layer"
     id="layer1"><text
       xml:space="preserve"
       style="font-style:normal;font-variant:normal;font-weight:normal;font-stretch:normal;font-size:14.1111px;line-height:0.9;font-family:'Fredoka dingbats';-inkscape-font-specification:'Fredoka dingbats';letter-spacing:-0.291042px;writing-mode:lr-tb;direction:ltr;fill:#1e1f27;fill-opacity:1;stroke-width:2;stroke-linecap:round;stroke-linejoin:round"
       x="-12.363758"
       y="-3.3485177"
       id="text1"><tspan
         sodipodi:role="line"
         style="stroke-width:2"
         x="-12.363758"
         y="-3.3485177"
         id="tspan2" /></text><path
       style="fill:#1e1f27;fill-opacity:1;stroke-width:0.0615679"
       d="m 2.7927145,5.9951307 c -0.0022,-0.0022 0.01265,-0.101139 0.03295,-0.219912 0.101735,-0.595174 0.165006,-1.121546 0.203669,-1.694384 0.01132,-0.167646 0.02701,-0.294781 0.03733,-0.30237 0.0098,-0.0072 0.06179,-0.02116 0.115542,-0.03102 0.05376,-0.0099 0.187349,-0.03464 0.296872,-0.05506 0.109524,-0.02043 0.202737,-0.03354 0.207141,-0.02914 0.0044,0.0044 -0.01749,0.201901 -0.04865,0.438884 -0.115674,0.879658 -0.153645,1.188383 -0.185992,1.512237 -0.01824,0.182614 -0.03316,0.344265 -0.03316,0.359225 0,0.02448 -0.03102,0.02711 -0.310862,0.02635 -0.170975,-4.68e-4 -0.312646,-0.0026 -0.314826,-0.0048 z m -0.310977,-2.561115 c -0.242055,-0.02183 -0.601291,-0.09754 -0.720418,-0.151814 -0.03172,-0.01445 -0.03425,-0.02008 -0.01412,-0.03134 0.02692,-0.01507 0.288413,0.01132 0.392453,0.0396 0.07643,0.02078 0.366522,0.03064 0.366522,0.01246 0,-0.02321 -0.463846,-0.08401 -0.633414,-0.08302 -0.06585,3.81e-4 -0.12859,-0.01019 -0.171043,-0.02882 -0.03688,-0.01618 -0.09271,-0.03912 -0.124064,-0.05097 -0.03136,-0.01185 -0.06801,-0.03076 -0.08145,-0.04203 -0.01344,-0.01127 -0.04643,-0.02566 -0.0733,-0.03198 -0.05729,-0.01347 -0.197622,-0.102007 -0.244348,-0.154153 -0.03958,-0.04418 -0.219912,-0.166131 -0.219912,-0.148726 0,0.0068 0.02304,0.03599 0.05119,0.06479 0.05923,0.06058 0.05652,0.08552 -0.0031,0.02854 -0.06574,-0.06283 -0.09847,-0.107952 -0.08919,-0.122959 0.0048,-0.0078 -0.01028,-0.03676 -0.03354,-0.0644 -0.04356,-0.05177 -0.03144,-0.0642 0.03092,-0.03171 0.01957,0.0102 1.23e-4,-0.01298 -0.04321,-0.0515 -0.06574,-0.05844 -0.07446,-0.07247 -0.05261,-0.0847 0.0144,-0.0081 0.04253,-0.01007 0.0625,-0.0045 0.02504,0.007 0.01909,-0.0013 -0.01918,-0.02666 -0.03053,-0.02027 -0.04697,-0.03969 -0.03655,-0.04317 0.01042,-0.0035 0.01404,-0.01427 0.008,-0.02398 -0.0069,-0.01124 -0.0011,-0.01388 0.01619,-0.0073 0.03411,0.01309 0.03529,-0.01038 0.0019,-0.03808 -0.01386,-0.0115 -0.04086,-0.04291 -0.06,-0.06979 l -0.0348,-0.04888 0.05571,0.01114 c 0.07967,0.01593 0.164754,0.06329 0.341555,0.190103 0.280474,0.201172 0.716722,0.392263 1.082937,0.474364 0.11383,0.02552 0.229806,0.03485 0.518731,0.04174 0.489648,0.01168 0.730512,-0.02022 1.077672,-0.142728 0.185417,-0.06543 0.2425,-0.09424 0.423536,-0.213749 0.231832,-0.153043 0.405673,-0.394706 0.547162,-0.760631 0.129992,-0.336191 0.177176,-0.91319203 0.114467,-1.39976803 -0.03277,-0.25428 -0.02516,-0.362018 0.02943,-0.416611 0.04241,-0.04241 0.103979,-0.02435 0.145218,0.04261 0.06501,0.105552 0.149255,0.535605 0.149255,0.761933 0,0.161837 -0.04415,0.56449503 -0.08301,0.75712103 -0.0437,0.216618 -0.131732,0.476935 -0.212082,0.627159 -0.03594,0.06719 -0.05032,0.103847 -0.03196,0.08145 0.01836,-0.0224 0.06669,-0.106699 0.107381,-0.187333 0.05226,-0.103548 0.07084,-0.129863 0.06328,-0.08959 -0.0315,0.167579 -0.204167,0.438542 -0.428206,0.671958 -0.18794,0.195807 -0.304822,0.28175 -0.517387,0.380434 -0.08826,0.04098 -0.213514,0.09967 -0.278334,0.130439 -0.389499,0.18486 -0.925346,0.276039 -1.38081,0.234955 z m 0.19955,-0.125829 c -0.01568,-0.0041 -0.04133,-0.0041 -0.05701,0 -0.01568,0.0041 -0.0029,0.0075 0.02851,0.0075 0.03136,0 0.04419,-0.0034 0.02851,-0.0075 z m 1.065185,-0.356647 c 0.09462,-0.01792 0.164667,-0.04307 0.229485,-0.0824 0.135749,-0.08238 0.129718,-0.09427 -0.01448,-0.02855 -0.06924,0.03155 -0.184938,0.07484 -0.257106,0.09619 -0.155224,0.04592 -0.143731,0.04996 0.0421,0.01477 z m -2.042575,0.275638 c 0.0112,-0.0045 0.02953,-0.0045 0.04073,0 0.0112,0.0045 0.002,0.0082 -0.02036,0.0082 -0.0224,0 -0.03156,-0.0037 -0.02036,-0.0082 z m 1.419371,-0.565555 c -0.144117,-0.0515 -0.26001,-0.160696 -0.373773,-0.352177 -0.08215,-0.138276 -0.107365,-0.246344 -0.08426,-0.361177 0.04506,-0.223952 0.144998,-0.388321 0.294388,-0.484185 l 0.0827,-0.05306 0.224694,0.0053 c 0.219213,0.0052 0.227692,0.0067 0.347644,0.06382 0.115947,0.05517 0.127194,0.06538 0.197448,0.179187 0.09451,0.1531 0.138408,0.272697 0.152466,0.415364 l 0.01112,0.112846 -0.08294,0.124007 c -0.09161,0.136969 -0.171251,0.215978 -0.284757,0.282497 -0.143533,0.08412 -0.355667,0.113685 -0.484725,0.06757 z"
       id="path81"
       sodipodi:nodetypes="sssssssssscsssssssssssssssssssssssssssscsssssssssssssssssssssssssssssssssssssscsssscssss" /></g></svg>
