<?xml version="1.0" encoding="UTF-8" standalone="no"?>
<!-- Created with Inkscape (http://www.inkscape.org/) -->

<svg
   width="6mm"
   height="6mm"
   viewBox="0 0 6 6"
   version="1.1"
   id="svg1"
   xml:space="preserve"
   sodipodi:docname="leaf.svg"
   inkscape:version="1.4.4 (dcaf3e7d9e, 2026-05-05)"
   xmlns:inkscape="http://www.inkscape.org/namespaces/inkscape"
   xmlns:sodipodi="http://sodipodi.sourceforge.net/DTD/sodipodi-0.dtd"
   xmlns="http://www.w3.org/2000/svg"
   xmlns:svg="http://www.w3.org/2000/svg"><sodipodi:namedview
     id="namedview1"
     pagecolor="#ffffff"
     bordercolor="#000000"
     borderopacity="0.25"
     inkscape:showpageshadow="2"
     inkscape:pageopacity="0.0"
     inkscape:pagecheckerboard="0"
     inkscape:deskcolor="#d1d1d1"
     inkscape:document-units="mm"
     inkscape:zoom="15.927825"
     inkscape:cx="4.8970906"
     inkscape:cy="5.5563143"
     inkscape:window-width="1920"
     inkscape:window-height="1024"
     inkscape:window-x="0"
     inkscape:window-y="32"
     inkscape:window-maximized="1"
     inkscape:current-layer="layer1" /><defs
     id="defs1" /><g
     inkscape:label="Layer 1"
     inkscape:groupmode="layer"
     id="layer1"><text
       xml:space="preserve"
       style="font-style:normal;font-variant:normal;font-weight:normal;font-stretch:normal;font-size:14.1111px;line-height:0.9;font-family:'Fredoka dingbats';-inkscape-font-specification:'Fredoka dingbats';letter-spacing:-0.291042px;writing-mode:lr-tb;direction:ltr;fill:#1e1f27;fill-opacity:1;stroke-width:2;stroke-linecap:round;stroke-linejoin:round"
       x="-12.363758"
       y="-3.3485177"
       id="text1"><tspan
         sodipodi:role="line"
         style="stroke-width:2"
         x="-12.363758"
         y="-3.3485177"
         id="tspan2" /></text><path
       style="fill:#1e1f27;stroke-width:0.0353366;fill-opacity:1"
       d="m 0.41893981,5.9973501 c -5.3e-4,-0.0013 -0.006,-0.07176 -0.0132,-0.156604 -0.0119,-0.150324 -0.0216,-0.231029 -0.0428,-0.35528 -0.006,-0.03343 -0.0137,-0.08391 -0.0179,-0.112194 -0.004,-0.02828 -0.0123,-0.07877 -0.0181,-0.112194 -0.0732,-0.419421 -0.0892,-0.570645 -0.0884,-0.832103 8.4e-4,-0.254507 0.0272,-0.561793 0.0625,-0.729258 0.003,-0.01286 0.01,-0.04862 0.016,-0.07947 0.02,-0.101732 0.0662,-0.289468 0.0764,-0.309979 0.005,-0.01108 0.007,-0.02446 0.004,-0.02974 -0.003,-0.0053 -0.002,-0.01212 0.003,-0.01521 0.005,-0.0031 0.006,-0.01249 0.003,-0.02088 -0.004,-0.0092 -0.002,-0.01291 0.004,-0.0094 0.006,0.0035 0.0147,-0.01611 0.0221,-0.04755 0.007,-0.02939 0.0207,-0.07447 0.0306,-0.100183 0.01,-0.02571 0.0227,-0.06042 0.0285,-0.07713 0.006,-0.01671 0.0137,-0.03039 0.0176,-0.03039 0.004,0 0.007,-0.01307 0.007,-0.02905 0,-0.02093 0.004,-0.02766 0.013,-0.02407 0.009,0.0034 0.0116,-3.18e-4 0.009,-0.01186 -0.002,-0.0093 0.004,-0.03402 0.0151,-0.05503 0.0107,-0.02101 0.0195,-0.04467 0.0195,-0.05259 0,-0.0079 0.004,-0.0144 0.009,-0.0144 0.005,0 0.009,-0.0066 0.009,-0.01459 0,-0.0188 0.11452,-0.246476 0.12418,-0.246886 0.004,-1.77e-4 0.0111,0.0092 0.0158,0.02073 0.006,0.01524 0.009,0.01668 0.009,0.0052 3.2e-4,-0.0087 -0.004,-0.01841 -0.009,-0.02159 -0.0122,-0.0075 -0.0122,-0.04207 0,-0.04207 0.005,0 0.009,-0.007 0.009,-0.01563 0,-0.0086 0.007,-0.02299 0.0148,-0.03198 0.0176,-0.01942 0.0489,-0.07194 0.0567,-0.09497 0.003,-0.009 0.009,-0.01636 0.0138,-0.01636 0.005,0 0.008,-0.004 0.008,-0.0089 0,-0.0049 0.0137,-0.02845 0.0304,-0.05238 0.0167,-0.02392 0.0346,-0.05007 0.0397,-0.0581 0.0232,-0.03628 0.0993,-0.139737 0.11651999,-0.158451 0.0105,-0.01139 0.019,-0.02741 0.019,-0.03561 0,-0.0082 0.004,-0.01227 0.01,-0.009 0.005,0.0032 0.007,0.01044 0.003,0.01602 -0.004,0.0059 -0.002,0.0075 0.004,0.0037 0.006,-0.0035 0.008,-0.01272 0.005,-0.02042 -0.003,-0.008 0.004,-0.02185 0.0159,-0.03242 0.0117,-0.01013 0.018,-0.01842 0.0141,-0.01842 -0.004,0 0.003,-0.0083 0.0149,-0.01839 0.0121,-0.01011 0.019,-0.01853 0.0152,-0.0187 -0.006,-2.93e-4 0.0272,-0.0384 0.1226,-0.138761 0.0225,-0.02369 0.0362,-0.04465 0.0304,-0.04658 -0.006,-0.0019 -0.0105,-0.0079 -0.0105,-0.01323 0,-0.0067 0.004,-0.0067 0.0117,-1.03e-4 0.009,0.0071 0.0216,-7.43e-4 0.0488,-0.02924 0.0204,-0.02137 0.0362,-0.04096 0.0351,-0.04353 -0.001,-0.0026 0.003,-0.0049 0.01,-0.0051 0.006,-2.33e-4 0.0105,-0.0058 0.009,-0.01238 -10e-4,-0.0066 0.001,-0.0095 0.006,-0.0064 0.005,0.003 0.0145,-0.0019 0.0213,-0.01099 0.007,-0.0091 0.0313,-0.03182 0.0544,-0.05053 0.0651,-0.05264 0.12093,-0.108409 0.11471,-0.114629 -0.003,-0.0031 5.7e-4,-0.0056 0.008,-0.0056 0.0124,0 0.0363,-0.01713 0.0948,-0.06778 0.0104,-0.009 0.0225,-0.01636 0.0268,-0.01636 0.004,0 0.008,-0.0063 0.008,-0.01402 0,-0.0078 0.008,-0.01402 0.0187,-0.01402 0.0103,0 0.0187,-0.0033 0.0187,-0.0073 0,-0.004 0.0127,-0.01483 0.0282,-0.024 0.016,-0.0095 0.0255,-0.02113 0.0218,-0.02698 -0.004,-0.0064 -10e-4,-0.0083 0.008,-0.0049 0.008,0.0031 0.0197,-0.0023 0.027,-0.01244 0.007,-0.0098 0.0204,-0.01785 0.0295,-0.01785 0.009,0 0.0166,-0.0042 0.0166,-0.0093 0,-0.0051 0.006,-0.0093 0.0123,-0.0093 0.007,0 0.0213,-0.0084 0.0323,-0.0187 0.011,-0.01028 0.0237,-0.0187 0.0281,-0.0187 0.004,0 0.0162,-0.0074 0.0262,-0.01636 0.01,-0.009 0.0371,-0.02657 0.0602,-0.03904 0.0231,-0.01247 0.0441,-0.02509 0.0467,-0.02805 0.005,-0.0057 0.0647,-0.03829 0.12622,-0.06876 0.0206,-0.0102 0.04,-0.02255 0.0431,-0.02746 0.003,-0.0049 0.009,-0.0081 0.0121,-0.0071 0.01,0.0027 0.0617,-0.0203 0.0617,-0.02731 0,-0.0034 0.0113,-0.0071 0.0252,-0.0083 0.0138,-0.0011 0.0275,-0.0052 0.0304,-0.0091 0.009,-0.01177 0.0462,-0.03034 0.0612,-0.03034 0.008,0 0.0142,-0.0042 0.0142,-0.0094 0,-0.0051 0.006,-0.0093 0.0141,-0.0093 0.008,0 0.032,-0.0081 0.0538,-0.01805 0.0218,-0.0099 0.0691,-0.02774 0.10508,-0.03958 0.036,-0.01184 0.0675,-0.02433 0.0701,-0.02774 0.003,-0.0034 0.0173,-0.0075 0.0327,-0.0092 0.0154,-0.0016 0.0323,-0.0055 0.0374,-0.0087 0.005,-0.0032 0.0346,-0.01139 0.0654,-0.01822 0.0309,-0.0068 0.0601,-0.01595 0.065,-0.02027 0.005,-0.0043 0.0185,-0.0078 0.0302,-0.0078 0.0249,0 0.0981,-0.01666 0.13851,-0.03153 0.0154,-0.0057 0.0314,-0.0093 0.0355,-0.008 0.004,0.0013 0.0415,-0.0061 0.0831,-0.01648 0.0416,-0.01036 0.0885,-0.01884 0.10411,-0.01884 0.0156,0 0.0414,-0.0039 0.0572,-0.0087 0.0267,-0.0081 0.17475,-0.02995 0.32789,-0.04831 0.036,-0.0043 0.10121,-0.01249 0.14492,-0.01817 0.0437,-0.0057 0.10051,-0.01254 0.12622,-0.01525 0.0257,-0.0027 0.0518,-0.0091 0.058,-0.01413 0.006,-0.0051 0.0146,-0.0073 0.0187,-0.005 0.004,0.0023 0.0348,7.6e-4 0.0682,-0.0034 0.0334,-0.0042 0.0797,-0.0099 0.10285,-0.0128 0.0736,-0.0091 0.16266,-0.02475 0.19233,-0.03374 0.0158,-0.0048 0.0428,-0.0087 0.0601,-0.0087 0.0173,0 0.0443,-0.0039 0.0601,-0.0088 0.0158,-0.0048 0.0645,-0.01559 0.10819,-0.02394 0.0437,-0.0084 0.0984,-0.01916 0.12154,-0.02401 0.0231,-0.0048 0.0579,-0.01146 0.0771,-0.01468 0.0193,-0.0032 0.0351,-0.0095 0.0351,-0.01398 0,-0.0045 0.009,-0.0081 0.0198,-0.0081 0.0188,0 0.12797,-0.03198 0.15783,-0.04625 0.008,-0.0037 0.034,-0.01253 0.0584,-0.01966 0.0244,-0.0071 0.0444,-0.01625 0.0444,-0.02027 0,-0.004 0.0103,-0.0073 0.0228,-0.0073 0.0125,0 0.0254,-0.0042 0.0286,-0.0093 0.003,-0.0051 0.0139,-0.0093 0.0239,-0.0093 0.01,0 0.0181,-0.0034 0.0181,-0.0076 0,-0.0042 0.021,-0.01297 0.0468,-0.01956 0.0257,-0.0066 0.0468,-0.0158 0.0468,-0.02047 0,-0.0047 0.008,-0.0085 0.0187,-0.0085 0.0103,0 0.0187,-0.0042 0.0187,-0.0093 0,-0.0051 0.009,-0.0093 0.0192,-0.0093 0.0106,0 0.0167,-0.0042 0.0135,-0.0094 -0.003,-0.0051 0.002,-0.0095 0.0111,-0.0097 0.009,-2.02e-4 0.0401,-0.01472 0.0683,-0.03228 0.0283,-0.01755 0.0651,-0.0389 0.0818,-0.04745 0.0167,-0.0085 0.0304,-0.01927 0.0304,-0.02382 0,-0.0046 0.005,-0.0083 0.0117,-0.0083 0.0107,-10e-6 0.0428,-0.02292 0.0841,-0.06008 0.009,-0.0081 0.0206,-0.0147 0.0257,-0.0147 0.005,0 0.009,-0.0054 0.009,-0.01203 0,-0.0066 0.008,-0.01263 0.0177,-0.0133699953 0.0167,-0.001300005 0.0181,0.0117399953 0.0257,0.23875999526 0.0162,0.483981 0.006,1.09430803 -0.0243,1.42279803 -0.0217,0.236924 -0.0495,0.45051 -0.0741,0.570318 -0.005,0.02314 -0.013,0.06521 -0.0183,0.09349 -0.005,0.02828 -0.0144,0.07246 -0.0201,0.09817 -0.006,0.02571 -0.0139,0.06358 -0.0182,0.08414 -0.004,0.02057 -0.0146,0.0618 -0.0228,0.09161 -0.008,0.02982 -0.015,0.06428 -0.015,0.07658 0,0.0123 -0.004,0.02497 -0.009,0.02814 -0.005,0.0032 -0.009,0.01605 -0.009,0.0286 0,0.01255 -0.004,0.02282 -0.009,0.02282 -0.005,0 -0.009,0.01058 -0.009,0.0235 0,0.01293 -0.004,0.03081 -0.009,0.03974 -0.007,0.01311 -0.0183,0.05006 -0.0233,0.07701 -4.9e-4,0.0026 -0.006,0.0173 -0.0116,0.03272 -0.006,0.01543 -0.0134,0.03635 -0.0167,0.04649 -0.005,0.01558 -0.008,0.0163 -0.0155,0.0047 -0.007,-0.01042 -0.008,-0.0086 -0.003,0.0075 0.006,0.02153 -0.008,0.06851 -0.0483,0.159013 -0.012,0.02715 -0.0219,0.05287 -0.0219,0.05715 0,0.01276 -0.1713,0.351346 -0.17947,0.354732 -0.004,0.0017 -0.008,0.0089 -0.008,0.01589 0,0.007 -0.0126,0.03148 -0.0281,0.05434 -0.0154,0.02286 -0.028,0.04621 -0.028,0.05189 0,0.0057 -0.004,0.01033 -0.009,0.01033 -0.005,0 -0.009,0.006 -0.009,0.01324 0,0.0073 -0.003,0.01465 -0.007,0.01636 -0.0149,0.0063 -0.0497,0.06407 -0.0441,0.07317 0.003,0.0052 -7.5e-4,0.0094 -0.009,0.0094 -0.0133,0 -0.0189,0.01122 -0.0155,0.03108 7.3e-4,0.0042 -0.003,0.005 -0.008,0.0018 -0.009,-0.0054 -0.0138,0.0072 -0.0105,0.02626 7.3e-4,0.0042 -0.003,0.0053 -0.007,0.0024 -0.009,-0.0053 -0.0244,0.02064 -0.0212,0.03501 9.5e-4,0.0042 -0.003,0.005 -0.008,0.0017 -0.005,-0.0033 -0.0125,0.0015 -0.016,0.01055 -0.003,0.0091 -0.0182,0.0289 -0.0327,0.04405 -0.0145,0.01515 -0.0263,0.03573 -0.0263,0.04573 0,0.01 -0.007,0.02022 -0.0164,0.0227 -0.009,0.0025 -0.0311,0.02338 -0.0491,0.04645 -0.018,0.02307 -0.0572,0.06872 -0.0872,0.101454 -0.03,0.03273 -0.0544,0.06298 -0.0543,0.06721 10e-5,0.0042 -0.008,0.01071 -0.018,0.0144 -0.01,0.0037 -0.0181,0.01341 -0.0181,0.02159 0,0.0082 -0.004,0.01267 -0.008,0.01 -0.004,-0.0027 -0.013,0.0046 -0.0192,0.01615 -0.006,0.01158 -0.0205,0.02526 -0.0318,0.03041 -0.0113,0.0051 -0.0194,0.01477 -0.018,0.02139 0.001,0.0066 -10e-4,0.0097 -0.006,0.0069 -0.0113,-0.007 -0.0407,0.02665 -0.0319,0.0364 0.004,0.0043 0.002,0.0051 -0.003,0.0019 -0.006,-0.0032 -0.0239,0.0083 -0.0405,0.0255 -0.022,0.02268 -0.0269,0.03284 -0.0179,0.03687 0.007,0.0031 0.004,0.0046 -0.006,0.0033 -0.0103,-0.0013 -0.0298,0.0097 -0.0444,0.02492 -0.0143,0.01495 -0.0261,0.0234 -0.0263,0.01878 -2e-4,-0.0046 -0.006,0.0056 -0.0139,0.02265 -0.007,0.01707 -0.0178,0.0284 -0.023,0.02516 -0.005,-0.0032 -0.01,-0.0014 -0.01,0.004 0,0.0054 -0.003,0.009 -0.007,0.0079 -0.0118,-0.0033 -0.0491,0.02448 -0.0491,0.03666 0,0.0063 -0.005,0.0094 -0.0119,0.0069 -0.007,-0.0025 -0.0293,0.01129 -0.0506,0.03068 -0.055,0.05025 -0.0662,0.05863 -0.0784,0.05863 -0.006,0 -0.008,0.0065 -0.005,0.01451 0.003,0.0087 0.002,0.01211 -0.004,0.0085 -0.005,-0.0033 -0.019,0.0046 -0.0303,0.01758 -0.0113,0.01298 -0.0321,0.02645 -0.0462,0.02993 -0.0141,0.0035 -0.0257,0.01007 -0.0257,0.01466 0,0.0046 -0.006,0.0083 -0.014,0.0083 -0.008,0 -0.014,0.0042 -0.014,0.0093 0,0.0051 -0.005,0.0094 -0.0117,0.0094 -0.006,6e-6 -0.0238,0.0104 -0.0385,0.02311 -0.0148,0.0127 -0.0348,0.0256 -0.0444,0.02867 -0.01,0.0031 -0.0176,0.0095 -0.0176,0.01429 0,0.0048 -0.006,0.0087 -0.014,0.0087 -0.008,0 -0.0141,0.0032 -0.0141,0.007 -6e-5,0.0039 -0.017,0.01511 -0.0377,0.025 -0.0273,0.0131 -0.0343,0.02033 -0.0256,0.02659 0.008,0.006 0.007,0.0069 -0.005,0.003 -0.01,-0.0032 -0.0279,0.002 -0.0421,0.01205 -0.0307,0.02179 -0.0876,0.05445 -0.13705,0.07873 -0.0206,0.01009 -0.0395,0.02119 -0.0421,0.02466 -0.003,0.0035 -0.0194,0.01214 -0.0374,0.01927 -0.018,0.0071 -0.0348,0.01541 -0.0374,0.01839 -0.009,0.0099 -0.16342,0.08461 -0.17531,0.08453 -0.006,-3.6e-5 -0.0117,0.0032 -0.0117,0.0072 0,0.004 -0.0193,0.013 -0.0428,0.01996 -0.0236,0.007 -0.0451,0.01837 -0.0477,0.02536 -0.003,0.007 -0.009,0.01027 -0.0137,0.0073 -0.005,-0.003 -0.0138,-0.0014 -0.02,0.0035 -0.006,0.0049 -0.0281,0.01424 -0.0487,0.02072 -0.0206,0.0065 -0.0416,0.01478 -0.0468,0.01844 -0.0146,0.01038 -0.091,0.0391 -0.11657,0.04384 -0.0127,0.0023 -0.0288,0.009 -0.0358,0.01486 -0.007,0.0058 -0.0198,0.01132 -0.0283,0.01221 -0.009,8.9e-4 -0.0598,0.01635 -0.11375,0.03435 -0.054,0.018 -0.11921,0.03812 -0.14492,0.04471 -0.0257,0.0066 -0.0507,0.01557 -0.0556,0.01995 -0.005,0.0044 -0.0204,0.008 -0.0345,0.008 -0.0141,0 -0.0282,0.0042 -0.0314,0.0093 -0.003,0.0051 -0.0159,0.0093 -0.0282,0.0093 -0.0123,0 -0.0468,0.0065 -0.0766,0.01455 -0.0298,0.008 -0.0731,0.01799 -0.0963,0.0222 -0.0231,0.0042 -0.0736,0.01403 -0.11219,0.02182 -0.12033,0.02431 -0.29682,0.05061 -0.388,0.05782 -0.0672,0.0053 -0.38664,0.03683 -0.52825,0.05213 -0.11841,0.01279 -0.1921,0.02491 -0.28048,0.04613 -0.0437,0.01049 -0.0879,0.02109 -0.0982,0.02355 -0.0518,0.01237 -0.0966,0.02787 -0.0938,0.03246 0.002,0.0028 -0.0101,0.0061 -0.0262,0.0073 -0.0162,0.0012 -0.0309,0.0064 -0.0326,0.01169 -0.002,0.0053 -0.0111,0.0095 -0.0208,0.0095 -0.01,0 -0.0326,0.0084 -0.0509,0.0187 -0.0183,0.01028 -0.0395,0.0187 -0.047,0.0187 -0.008,0 -0.0137,0.0047 -0.0137,0.01044 0,0.0058 -0.008,0.0083 -0.0187,0.0055 -0.0103,-0.0027 -0.0165,-0.0012 -0.0137,0.0032 0.008,0.01242 -0.0327,0.04836 -0.0478,0.04256 -0.007,-0.0028 -0.0133,-0.0013 -0.0133,0.0033 0,0.0046 -0.007,0.0108 -0.0164,0.0137 -0.009,0.0029 -0.0395,0.02631 -0.0678,0.05201 -0.0451,0.04099 -0.0629,0.05292 -0.0664,0.04448 z m 0.0887,-0.197102 c 0.0268,-0.05861 0.034,-0.08321 0.0711,-0.244661 0.0154,-0.06685 0.0409,-0.167823 0.0567,-0.224388 0.0158,-0.05656 0.0328,-0.118795 0.0377,-0.138292 0.005,-0.0195 0.0168,-0.05315 0.0264,-0.0748 0.01,-0.02164 0.0269,-0.0709 0.0385,-0.109469 0.0116,-0.03857 0.0331,-0.09419 0.0479,-0.123614 0.0147,-0.02942 0.0268,-0.05914 0.0268,-0.06603 0,-0.01475 0.0479,-0.06279 0.0626,-0.06279 0.006,0 0.0389,-0.01683 0.0741,-0.0374 0.0352,-0.02057 0.0692,-0.0374 0.0756,-0.0374 0.006,0 0.038,-0.0081 0.0703,-0.01792 0.11764,-0.03595 0.15994,-0.04089 0.30783,-0.03594 0.0789,0.0026 0.15547,0.0096 0.17014,0.01543 0.0147,0.0059 0.0525,0.0164 0.0841,0.02344 0.1849,0.0412 0.41929,0.161743 0.65468,0.336695 l 0.0736,0.05472 0.0269,-0.02877 c 0.0148,-0.01582 0.0269,-0.03135 0.0269,-0.0345 0,-0.0246 -0.2436,-0.256895 -0.31422,-0.299635 -0.10952,-0.06629 -0.28431,-0.147202 -0.37948,-0.175678 -0.25184,-0.07535 -0.56391,-0.06806 -0.76985998,0.01799 -0.0201,0.0084 -0.0324,0.0098 -0.0324,0.0037 0,-0.01812 0.0288,-0.07889 0.0464,-0.09787 0.01,-0.01035 0.0276,-0.03776 0.04,-0.0609 0.022,-0.04113 0.0927,-0.149778 0.12776,-0.196339 0.01,-0.01286 0.0325,-0.04651 0.0507,-0.0748 0.0654,-0.101469 0.23847,-0.2838 0.44819,-0.472148 0.0544,-0.04885 0.0811,-0.05756 0.23158,-0.07558 0.37156,-0.04448 0.77036,0.06012 1.07025,0.280711 0.11545,0.08492 0.14677,0.111061 0.22632,0.188847 0.10202,0.09977 0.22899,0.266292 0.28416,0.372675 0.0213,0.04114 0.0504,0.08952 0.0646,0.107519 0.0142,0.018 0.0324,0.0485 0.0404,0.06778 0.0158,0.03777 0.0364,0.04458 0.0671,0.02215 0.017,-0.0124 0.0171,-0.0151 0.002,-0.0687 -0.0154,-0.05552 -0.0537,-0.141615 -0.0946,-0.2129 -0.0118,-0.02057 -0.0321,-0.05633 -0.045,-0.07947 -0.0581,-0.103786 -0.0776,-0.13556 -0.0923,-0.150275 -0.009,-0.0087 -0.0325,-0.03835 -0.053,-0.06597 -0.0521,-0.07024 -0.24732,-0.256362 -0.32531,-0.310152 -0.0999,-0.0689 -0.20955,-0.137414 -0.21993,-0.137414 -0.005,0 -0.0348,-0.01286 -0.066,-0.02858 -0.058,-0.02925 -0.17843,-0.07133 -0.28205,-0.09849 -0.0962,-0.02522 -0.23751,-0.0406 -0.37586,-0.04092 l -0.13072,-2.83e-4 0.0344,-0.02337 c 0.0189,-0.01286 0.0385,-0.02337 0.0435,-0.02337 0.005,0 0.0105,-0.0032 0.0122,-0.0072 0.003,-0.007 0.0916,-0.06104 0.17608,-0.107468 0.0231,-0.01271 0.0799,-0.0447 0.12622,-0.07108 0.0463,-0.02638 0.089,-0.04797 0.095,-0.04798 0.006,-1.1e-5 0.0123,-0.0034 0.014,-0.0076 0.004,-0.0092 0.21325,-0.121635 0.47371,-0.254175 l 0.13401,-0.0682 0.1231,0.0054 c 0.44287,0.0194 0.89942,0.314579 1.1365,0.734795 0.0614,0.108855 0.0969,0.150749 0.12756,0.150749 0.0103,0 -0.006,-0.105584 -0.0235,-0.149011 -0.0329,-0.08358 -0.0568,-0.123621 -0.13932,-0.234226 -0.18854,-0.252588 -0.36699,-0.411949 -0.57615,-0.514507 -0.14491,-0.07106 -0.29948,-0.120563 -0.37818,-0.121121 -0.0395,-2.82e-4 -0.0329,-0.0077 0.0435,-0.04863 0.0519,-0.02778 0.0915,-0.05191 0.24791,-0.150842 0.0243,-0.01535 0.0414,-0.0322 0.0382,-0.03746 -0.004,-0.0057 7e-5,-0.0073 0.009,-0.0039 0.009,0.0033 0.0295,-0.0056 0.0506,-0.02152 0.0198,-0.01494 0.0395,-0.02729 0.0439,-0.02743 0.0147,-4.79e-4 0.0612,-0.04483 0.0546,-0.05214 -0.004,-0.004 -0.002,-0.0047 0.003,-0.0015 0.0111,0.0063 0.0185,0.0018 0.15033,-0.09068 0.11947,-0.08382 0.19263,-0.137543 0.20432,-0.150023 0.0295,-0.03152 0.0625,-0.04245 0.12822,-0.04242 0.18935,8.1e-5 0.45069,0.086 0.54026,0.17761 0.003,0.0026 0.0215,0.01701 0.0421,0.03195 0.0206,0.01494 0.0902,0.08065 0.15468,0.146017 0.0905,0.09173 0.12253,0.118585 0.14024,0.117695 0.0299,-0.0015 0.0338,-0.02829 0.0137,-0.09253 -0.0323,-0.102801 -0.0812,-0.171186 -0.18809,-0.26272 -0.13324,-0.114136 -0.3863,-0.224507 -0.53647,-0.233972 -0.0726,-0.0046 -0.0887,-0.01114 -0.0629,-0.0256 0.009,-0.0051 0.0136,-0.01382 0.0102,-0.01944 -0.004,-0.0058 -0.002,-0.0076 0.004,-0.004 0.009,0.0057 0.0732,-0.0464 0.15273,-0.12453 0.0185,-0.01816 0.0656,-0.06159 0.10467,-0.09651 0.0391,-0.03492 0.0736,-0.07147 0.0767,-0.08121 0.003,-0.0097 0.0112,-0.01903 0.018,-0.02065 0.0337,-0.008 0.28015,-0.296335 0.41394,-0.484301 0.11265,-0.15825803 0.27398,-0.43271303 0.27398,-0.46609303 0,-0.02336 -0.0141,-0.0267 -0.0257,-0.0061 -0.024,0.04292 -0.46245,0.50218403 -0.6438,0.67438903 -0.17922,0.170194 -0.57065,0.505323 -0.57967,0.496302 -0.003,-0.0025 0.002,-0.04193 0.01,-0.08752 0.0213,-0.123097 0.0275,-0.259575 0.0157,-0.344676 -0.0132,-0.09484 -0.0303,-0.163615 -0.0408,-0.163615 -0.004,0 -0.006,-0.0042 -0.002,-0.0094 0.003,-0.0051 0.002,-0.0093 -0.002,-0.0093 -0.004,0 -0.009,-0.0091 -0.009,-0.0202 -8.4e-4,-0.01111 -0.006,-0.02315 -0.0121,-0.02676 -0.006,-0.0036 -0.0101,-0.0094 -0.009,-0.01286 0.002,-0.01246 -0.0338,-0.0504 -0.0516,-0.05403 -0.034,-0.0069 -0.0389,0.01556 -0.0257,0.117133 0.0419,0.322275 0.029,0.506477 -0.0499,0.708595 -0.0165,0.04241 -0.0313,0.06532 -0.0465,0.07226 -0.0123,0.0056 -0.0223,0.01445 -0.0223,0.01971 0,0.0053 -0.005,0.0085 -0.0117,0.0072 -0.006,-0.0013 -0.0105,0.0032 -0.009,0.01004 10e-4,0.0068 -10e-4,0.0099 -0.006,0.0069 -0.005,-0.003 -0.0207,0.0044 -0.0353,0.01643 -0.0146,0.01203 -0.0444,0.03177 -0.0663,0.04389 -0.0273,0.01514 -0.0361,0.02435 -0.028,0.02948 0.008,0.005 0.005,0.0075 -0.009,0.0076 -0.0116,7.8e-5 -0.021,0.0044 -0.021,0.0095 0,0.0051 -0.003,0.0083 -0.007,0.0071 -0.004,-0.0012 -0.0577,0.02994 -0.11976,0.06928 -0.062,0.03934 -0.12723,0.0798 -0.14492,0.0899 -0.0177,0.0101 -0.0763,0.0448 -0.13033,0.07712 -0.054,0.03232 -0.14968,0.08687 -0.21264,0.121227 -0.063,0.03436 -0.11169,0.06524 -0.1083,0.06863 0.003,0.0034 -0.003,0.0062 -0.0146,0.0062 -0.0134,0 -0.0184,0.0039 -0.0141,0.01079 0.004,0.0064 0.003,0.0083 -0.003,0.0046 -0.006,-0.0034 -0.0209,-0.0013 -0.0342,0.0047 -0.024,0.01093 -0.0468,0.0035 -0.0273,-0.0089 0.022,-0.01398 0.0859,-0.240237 0.10195,-0.361143 0.0176,-0.132469 0.0149,-0.344695 -0.006,-0.449416 -0.0272,-0.137664 -0.0844,-0.314365 -0.11606,-0.358099 -0.0475,-0.06574 -0.0686,-0.08093 -0.0977,-0.07043 -0.0213,0.0077 -0.0238,0.01328 -0.0217,0.04741 10e-4,0.02128 0.0176,0.07366 0.0361,0.116404 0.0343,0.07898 0.0565,0.152643 0.084,0.278734 0.022,0.100926 0.0235,0.478538 0.002,0.49189 -0.004,0.0026 -0.008,0.01453 -0.008,0.0265 0,0.02967 -0.0718,0.247047 -0.0912,0.276201 -0.009,0.01292 -0.0269,0.04702 -0.0406,0.07579 -0.0229,0.04797 -0.0307,0.05524 -0.0938,0.08771 -0.0379,0.01947 -0.0857,0.04486 -0.10627,0.05642 -0.0206,0.01156 -0.0605,0.03344 -0.0888,0.04863 -0.079,0.04245 -0.0914,0.04969 -0.19241,0.112436 -0.0518,0.03221 -0.0969,0.05856 -0.10013,0.05856 -0.003,0 -0.0323,0.01679 -0.0647,0.03731 -0.0323,0.02052 -0.0637,0.03735 -0.0697,0.0374 -0.006,3.5e-5 -0.0123,0.0036 -0.014,0.0079 -0.002,0.0043 -0.0477,0.03762 -0.10223,0.07407 -0.0545,0.03645 -0.105,0.07191 -0.11219,0.07881 -0.0193,0.01849 -0.0656,0.04706 -0.0696,0.04299 -0.002,-0.0019 0.005,-0.0433 0.0147,-0.09191 0.0561,-0.271125 0.0389,-0.578388 -0.0464,-0.828162 -0.0682,-0.199827 -0.07,-0.203027 -0.10174,-0.182546 -0.01,0.0064 -0.006,0.0326 0.0185,0.133218 l 0.0308,0.125296 -4e-5,0.280484 c -2e-5,0.177609 -0.004,0.306203 -0.0115,0.350605 -0.0184,0.112045 -0.0681,0.308533 -0.0781,0.308533 -0.003,0 -0.009,0.01431 -0.012,0.0318 -0.004,0.02196 -0.0182,0.04182 -0.0455,0.06417 -0.11489,0.09415 -0.38072,0.379783 -0.38072,0.409091 0,0.0053 -0.0146,0.02252 -0.0324,0.03814 -0.0178,0.01563 -0.0413,0.04285 -0.0522,0.06049 -0.0109,0.01764 -0.0237,0.03207 -0.0283,0.03207 -0.005,0 -0.006,-0.05133 -0.003,-0.12388 0.0133,-0.280956 -0.0687,-0.620531 -0.18991997,-0.787023 -0.009,-0.0129 -0.0229,-0.02359 -0.0301,-0.02375 -0.0162,-3.68e-4 -0.0377,0.02708 -0.0381,0.04864 -1.8e-4,0.0089 0.0265,0.09727 0.0593,0.196339 0.0328,0.09907 0.065,0.211685 0.0717,0.250251 0.019,0.109738 0.0175,0.470421 -0.002,0.575271 -0.0186,0.09814 -0.0547,0.199622 -0.086,0.241494 -0.0121,0.01615 -0.0273,0.04619 -0.0338,0.06676 -0.007,0.02057 -0.0365,0.08788 -0.0666,0.149592 -0.0301,0.06171 -0.0547,0.118855 -0.0547,0.126997 -2e-5,0.0081 -0.003,0.01737 -0.006,0.02051 -0.009,0.0091 -0.0673,0.182134 -0.0887,0.26387 -0.0108,0.04114 -0.0271,0.09583 -0.0363,0.121543 -0.0192,0.05363 -0.0373,0.129072 -0.0998,0.416051 -0.011,0.05039 -0.0173,0.117101 -0.0173,0.182315 0,0.149019 0.0152,0.172702 0.055,0.08572 z M 1.4602498,5.6195751 c -0.006,-0.0026 -0.0189,-0.0027 -0.028,-3.53e-4 -0.009,0.0024 -0.004,0.0045 0.0115,0.0047 0.0154,1.77e-4 0.0229,-0.0017 0.0165,-0.0043 z m 0.29901,-0.02811 c -0.006,-0.0026 -0.017,-0.0026 -0.0234,0 -0.006,0.0026 -0.001,0.0047 0.0117,0.0047 0.0129,0 0.0181,-0.0021 0.0117,-0.0047 z m 0.53759,-0.07505 c -0.009,-0.0023 -0.0237,-0.0023 -0.0327,0 -0.009,0.0024 -0.002,0.0043 0.0164,0.0043 0.018,0 0.0254,-0.0019 0.0164,-0.0043 z M 0.34198981,5.2119901 c -0.003,-0.0064 -0.005,-0.0012 -0.005,0.01169 0,0.01285 0.002,0.01811 0.005,0.01169 0.003,-0.0064 0.003,-0.01695 0,-0.02337 z m 3.02985999,-0.05006 c -0.003,-0.0031 -0.0112,-0.0034 -0.0179,-7.39e-4 -0.007,0.003 -0.005,0.0052 0.006,0.0056 0.01,4.06e-4 0.0154,-0.0018 0.0123,-0.0049 z M 0.26719981,4.6884181 c -0.003,-0.0064 -0.005,-0.0012 -0.005,0.01169 0,0.01286 0.002,0.01812 0.005,0.01169 0.003,-0.0064 0.003,-0.01695 0,-0.02337 z m 0.003,-0.534478 c 1.8e-4,-0.02392 -0.005,-0.01646 -0.0129,0.01792 -0.005,0.02048 -0.004,0.02427 0.003,0.01402 0.005,-0.0077 0.01,-0.02209 0.01,-0.03194 z m 0.0172,-0.206467 c -2.1e-4,-0.01503 -0.002,-0.01412 -0.008,0.0047 -0.0102,0.03197 -0.0102,0.05655 0,0.03272 0.004,-0.01028 0.008,-0.02711 0.008,-0.0374 z m 4.58282999,0.0374 c 0.007,-0.0081 0.008,-0.01402 0.002,-0.01402 -0.005,0 -0.0119,0.0063 -0.0149,0.01402 -0.003,0.0077 -0.004,0.01402 -0.002,0.01402 0.002,0 0.008,-0.0063 0.0149,-0.01402 z M 0.32342981,3.6979621 c -0.003,-0.0075 -0.005,-0.0052 -0.006,0.0056 -4.1e-4,0.0099 0.002,0.01538 0.005,0.01227 0.003,-0.0031 0.003,-0.01117 7.4e-4,-0.01792 z m 5.22634999,-1.07519 c -0.003,-0.0075 -0.005,-0.0052 -0.006,0.0056 -4e-4,0.0099 0.002,0.01538 0.005,0.01227 0.003,-0.0031 0.003,-0.01117 7.4e-4,-0.01792 z m -3.96589,-1.19498 c -0.003,-0.0051 -10e-4,-0.0093 0.004,-0.0093 0.005,0 0.01,0.0042 0.01,0.0093 0,0.0051 -0.002,0.0093 -0.004,0.0093 -0.002,0 -0.007,-0.0042 -0.01,-0.0093 z"
       id="path81"
       sodipodi:nodetypes="csssssssssscsssssssssssscscsssscssssssssssssssssssssssssssssssssssssssssssssssssssssssscsssssssssssssssssssssssssssssssssssssscsssssssscssssssscsssscsssssssssssssssscscssssssssssssssssssssssssssssssssssssssssssssssscscsscssssssssscssssssssssssssssssssscsssscccssssssssssssssscsssssssssssssssssssssssssssccsssssssscsssssscssscsssssscssscsssssssssssssssssssssssssssssssssscsssssssssscsssssssssssssssssscssssssssccsssssssscsscssssssscsssscccccccssssscssssssscsssssssssssscsscsssssssssssscsssssss" /></g></svg>
