<?xml version="1.0" encoding="UTF-8" standalone="no"?>
<!-- Created with Inkscape (http://www.inkscape.org/) -->

<svg
   width="6mm"
   height="6mm"
   viewBox="0 0 6 6"
   version="1.1"
   id="svg1"
   xml:space="preserve"
   sodipodi:docname="music.svg"
   inkscape:version="1.4.4 (dcaf3e7d9e, 2026-05-05)"
   xmlns:inkscape="http://www.inkscape.org/namespaces/inkscape"
   xmlns:sodipodi="http://sodipodi.sourceforge.net/DTD/sodipodi-0.dtd"
   xmlns="http://www.w3.org/2000/svg"
   xmlns:svg="http://www.w3.org/2000/svg"><sodipodi:namedview
     id="namedview1"
     pagecolor="#ffffff"
     bordercolor="#000000"
     borderopacity="0.25"
     inkscape:showpageshadow="2"
     inkscape:pageopacity="0.0"
     inkscape:pagecheckerboard="0"
     inkscape:deskcolor="#d1d1d1"
     inkscape:document-units="mm"
     inkscape:zoom="13.292579"
     inkscape:cx="-1.5798289"
     inkscape:cy="4.5514119"
     inkscape:window-width="1920"
     inkscape:window-height="1024"
     inkscape:window-x="0"
     inkscape:window-y="32"
     inkscape:window-maximized="1"
     inkscape:current-layer="layer1" /><defs
     id="defs1" /><g
     inkscape:label="Layer 1"
     inkscape:groupmode="layer"
     id="layer1"><text
       xml:space="preserve"
       style="font-style:normal;font-variant:normal;font-weight:normal;font-stretch:normal;font-size:14.1111px;line-height:0.9;font-family:'Fredoka dingbats';-inkscape-font-specification:'Fredoka dingbats';letter-spacing:-0.291042px;writing-mode:lr-tb;direction:ltr;fill:#1e1f27;fill-opacity:1;stroke-width:2;stroke-linecap:round;stroke-linejoin:round"
       x="-12.363758"
       y="-3.3485177"
       id="text1"><tspan
         sodipodi:role="line"
         style="stroke-width:2"
         x="-12.363758"
         y="-3.3485177"
         id="tspan2" /></text><path
       style="fill:#000000;stroke-width:0.169401"
       d="M 1.2879558,5.9386495 C 1.021588,5.8444695 0.81733821,5.6024565 0.81733821,5.3810325 c 0,-0.249635 0.24397929,-0.503364 0.57959929,-0.602759 0.3088006,-0.09145 0.4159238,-0.08911 0.7197227,0.01575 0.1353193,0.04671 0.247679,0.08134 0.2496883,0.07697 0.00201,-0.0044 -0.034609,-0.82298 -0.081374,-1.819128 -0.082368,-1.754526 -0.082466,-1.81461 -0.00312,-1.920883 0.05843,-0.07826 0.4345358,-0.25606395 1.312214,-0.62034495 0.67667,-0.280853 1.254045,-0.5106410032924 1.283055,-0.5106410032924 0.02901,0 0.07427,0.025930003292 0.100567,0.057620003292 0.04393,0.05294 0.18697,2.65176695 0.203241,3.69272195 0.0062,0.399035 0.0024,0.415445 -0.128034,0.554705 -0.19823,0.211563 -0.444326,0.309351 -0.781417,0.310501 -0.8265715,0.0028 -1.161454,-0.722094 -0.517448,-1.120112 0.22465,-0.138841 0.731205,-0.175633 0.981021,-0.07125 0.0961,0.04015 0.184884,0.06286 0.197288,0.05046 0.02596,-0.02596 -0.06533,-2.129153 -0.09365,-2.15747 -0.02248,-0.02248 -2.2791993,0.912222 -2.3338895,0.96666 -0.020974,0.02088 -0.00522,0.735589 0.03501,1.588247 0.079586,1.686788 0.081002,1.670206 -0.16197,1.897076 -0.2351411,0.219559 -0.7304523,0.296588 -1.0898849,0.169497 z"
       id="path3"
       sodipodi:nodetypes="sssssssssssssssssscsss" /></g></svg>
