<?xml version="1.0" encoding="UTF-8" standalone="no"?>
<!-- Created with Inkscape (http://www.inkscape.org/) -->

<svg
   width="6mm"
   height="6mm"
   viewBox="0 0 6 6"
   version="1.1"
   id="svg1"
   xml:space="preserve"
   inkscape:version="1.4.4 (dcaf3e7d9e, 2026-05-05)"
   sodipodi:docname="palm.svg"
   xmlns:inkscape="http://www.inkscape.org/namespaces/inkscape"
   xmlns:sodipodi="http://sodipodi.sourceforge.net/DTD/sodipodi-0.dtd"
   xmlns="http://www.w3.org/2000/svg"
   xmlns:svg="http://www.w3.org/2000/svg"><sodipodi:namedview
     id="namedview1"
     pagecolor="#ffffff"
     bordercolor="#000000"
     borderopacity="0.25"
     inkscape:showpageshadow="2"
     inkscape:pageopacity="0.0"
     inkscape:pagecheckerboard="0"
     inkscape:deskcolor="#d1d1d1"
     inkscape:document-units="mm"
     inkscape:zoom="14.417787"
     inkscape:cx="6.3810072"
     inkscape:cy="15.29361"
     inkscape:window-width="1920"
     inkscape:window-height="1024"
     inkscape:window-x="0"
     inkscape:window-y="32"
     inkscape:window-maximized="1"
     inkscape:current-layer="layer1" /><defs
     id="defs1" /><g
     inkscape:label="Layer 1"
     inkscape:groupmode="layer"
     id="layer1"><path
       style="fill:#1e1f27;stroke-width:0.0373291;fill-opacity:1"
       d="m 2.851848,5.9870295 c -0.118257,-0.01992 -0.233317,-0.06305 -0.25056,-0.09394 -0.01333,-0.02387 -0.01129,-0.03012 0.03602,-0.110213 0.0473,-0.08007 0.10783,-0.200643 0.145187,-0.289178 0.07986,-0.189262 0.153301,-0.471475 0.153301,-0.589081 0,-0.05687 0.001,-0.0591 0.03611,-0.07981 0.03453,-0.02037 0.03518,-0.02172 0.01481,-0.03081 -0.02569,-0.01146 -0.02556,6.95e-4 -0.0015,-0.140081 0.03914,-0.228932 0.0427,-0.519366 0.0093,-0.756683 -0.0092,-0.0652 -0.0093,-0.0931 -5.48e-4,-0.11823 0.01002,-0.02876 0.0088,-0.03646 -0.0095,-0.06122 -0.01541,-0.02084 -0.02597,-0.0627 -0.03995,-0.158316 -0.02956,-0.202111 -0.04657,-0.295505 -0.08393,-0.460856 -0.0326,-0.144291 -0.09733,-0.38323 -0.106231,-0.392128 -0.0022,-0.0022 -0.02416,0.01011 -0.04872,0.02742 -0.05093,0.0359 -0.08937,0.0347 -0.09927,-0.0031 -0.0051,-0.0196 -0.009,-0.01609 -0.03125,0.02863 -0.05306,0.106446 -0.164338,0.192811 -0.22788,0.176862 -0.03321,-0.0083 -0.04413,-0.03526 -0.0598,-0.147328 -0.0076,-0.05448 -0.01636,-0.101544 -0.01943,-0.104589 -0.0031,-0.003 -0.0025,0.07002 0.0013,0.162367 0.0064,0.15773 0.0056,0.171345 -0.01466,0.224714 -0.02413,0.06373 -0.07694,0.135296 -0.1567,0.212327 -0.05919,0.05717 -0.09824,0.06747 -0.122813,0.03238 -0.01236,-0.01764 -0.01488,-0.01184 -0.02676,0.06173 -0.0222,0.137374 -0.04205,0.199314 -0.06495,0.202611 -0.01417,0.002 -0.02325,-0.0052 -0.03093,-0.02469 -0.0098,-0.02483 -0.01098,-0.02145 -0.01193,0.03405 -0.0015,0.08704 -0.0222,0.132109 -0.153302,0.333442 -0.135317,0.20781 -0.137425,0.210387 -0.158053,0.193267 -0.04511,-0.03744 -0.0941,-0.168964 -0.114424,-0.307199 -0.01794,-0.122004 -0.0078,-0.412124 0.01838,-0.528049 0.08184,-0.361861 0.284671,-0.679835 0.574428,-0.900507 0.05241,-0.03992 0.158622,-0.107168 0.181062,-0.114648 0.006,-0.002 -0.006,-0.0186 -0.02681,-0.03686 -0.04257,-0.03738 -0.05601,-0.06395 -0.06485,-0.128245 l -0.0061,-0.04445 -0.03178,0.09945 c -0.03301,0.103291 -0.05221,0.13049 -0.105998,0.15018 -0.09346,0.03421 -0.288778,0.04392 -0.340942,0.01694 -0.0354,-0.0183 -0.0469,-0.03884 -0.07394,-0.132062 -0.02076,-0.07155 -0.02137,-0.07237 -0.03269,-0.04444 -0.0063,0.01565 -0.02255,0.07229 -0.03602,0.125869 -0.03905,0.15539 -0.0966,0.23052 -0.208671,0.272453 -0.08251,0.03087 -0.27649295,0.07679 -0.40233995,0.09525 -0.09748,0.0143 -0.10921,0.01434 -0.12311,4.37e-4 -0.0139,-0.0139 -0.0127,-0.02222 0.01255,-0.08737 0.05458,-0.140816 0.158523,-0.328176 0.243415,-0.438768 0.09379,-0.12219 0.27534495,-0.277024 0.41359795,-0.352734 0.190508,-0.104327 0.457427,-0.167127 0.643895,-0.151494 l 0.06715,0.0056 -0.02466,-0.03628 c -0.02861,-0.0421 -0.03143,-0.07697 -0.0083,-0.102526 0.01565,-0.01729 0.01402,-0.01806 -0.03827,-0.01806 -0.109588,0 -0.146907,-0.02003 -0.111075,-0.05963 0.02155,-0.02381 0.01649,-0.02409 -0.03717,-0.0021 -0.02897,0.01187 -0.06847,0.01723 -0.126127,0.0171 -0.07713,-1.68e-4 -0.08997,-0.0032 -0.158026,-0.03729 -0.153239,-0.07677 -0.198693,-0.127915 -0.165333,-0.186041 0.01732,-0.03018 0.01563,-0.02999 -0.05623,0.0064 -0.08377,0.04241 -0.149821,0.03023 -0.347863,-0.06415 -0.13246095,-0.06312 -0.15379195,-0.08398 -0.12726895,-0.124463 0.0352,-0.05372 0.18208095,-0.13909003 0.28803495,-0.16740703 0.249338,-0.06664 0.537408,-0.05701 0.793845,0.02652 0.143756,0.04683 0.318448,0.13701103 0.435127,0.22463103 0.103636,0.07782 0.287428,0.258518 0.321333,0.315915 0.02256,0.0382 0.03367,0.03916 0.03367,0.0029 0,-0.03688 0.03195,-0.184933 0.06233,-0.288829 0.111675,-0.38192703 0.3398,-0.70776303 0.636836,-0.90960603 0.293864,-0.19969 0.661686,-0.269273 0.870047,-0.164592 0.05821,0.02925 0.06571,0.03633 0.06845,0.06466 0.0028,0.02898 -0.0079,0.04285 -0.12013,0.155733 -0.163643,0.164595 -0.184619,0.173997 -0.326888,0.146516 l -0.02913,-0.0056 0.02821,0.02426 c 0.0396,0.03406 0.03646,0.07487 -0.01117,0.14509 -0.05073,0.07478 -0.147559,0.17054 -0.195821,0.193655 -0.02803,0.01342 -0.06157,0.01903 -0.115469,0.0193 l -0.07596,3.78e-4 0.02629,0.02105 c 0.0232,0.01858 0.02466,0.02302 0.01238,0.03781 -0.01829,0.02204 -0.102878,0.0646 -0.128398,0.0646 -0.02648,0 -0.02533,0.0078 0.0046,0.03139 0.03087,0.02429 0.03175,0.05743 0.0035,0.13366903 -0.04855,0.131174 -0.146843,0.2299 -0.263765,0.264924 l -0.05898,0.01767 0.02042,0.02761 c 0.026,0.03517 0.01342,0.05301 -0.04382,0.06216 l -0.04101,0.0066 0.06095,0.02882 c 0.03756,0.01776 0.06095,0.03493 0.06095,0.04475 0,0.0088 -0.01258,0.0345 -0.02795,0.05721 -0.04818,0.07117 -0.04683,0.07231 0.01853,0.01568 0.162758,-0.141032 0.332033,-0.224257 0.575347,-0.282873 0.104306,-0.02513 0.423625,-0.02454 0.540261,9.92e-4 0.312724,0.06846 0.557157,0.206169 0.829952,0.467572 0.131637,0.12614 0.133925,0.135917 0.03919,0.167481 -0.128001,0.04265 -0.371834,0.08306 -0.513586,0.08513 -0.08445,0.0012 -0.09926,-0.0014 -0.14815,-0.02605 -0.06658,-0.03361 -0.13478,-0.09894 -0.19308,-0.184959 -0.02423,-0.03574 -0.05492,-0.0752 -0.06821,-0.08769 l -0.02417,-0.0227 0.0058,0.103203 c 0.007,0.124168 -7.5e-5,0.139684 -0.08371,0.182946 -0.05747,0.02972 -0.0935,0.04223 -0.18927,0.0657 l -0.05383,0.01319 0.03592,0.0067 c 0.115427,0.02165 0.285746,0.09832 0.417102,0.187752 0.09652,0.06571 0.265007,0.225891 0.328352,0.312158 0.07518,0.102388 0.140942,0.219905 0.179618,0.320991 0.01247,0.03259 0.02651,0.06815 0.03121,0.07901 0.04219,0.09766 0.08449,0.345639 0.09441,0.553504 0.0085,0.177082 0.0063,0.179995 -0.09835,0.130319 -0.120664,-0.0573 -0.408559,-0.257773 -0.462962,-0.322374 -0.02959,-0.03514 -0.05518,-0.09396 -0.06811,-0.156573 -0.01067,-0.05164 -0.01004,-0.07891 0.0042,-0.182185 0.02488,-0.180365 0.02156,-0.191265 -0.03257,-0.106916 -0.03766,0.0587 -0.08942,0.10615 -0.125701,0.115256 -0.08055,0.02022 -0.35456,-0.124033 -0.394432,-0.207646 -0.01348,-0.02826 -0.01441,-0.04955 -0.0064,-0.145531 0.0052,-0.06184 0.0084,-0.113824 0.0072,-0.115531 -0.0012,-0.0017 -0.01258,0.01759 -0.02522,0.04289 -0.03962,0.07934 -0.107851,0.122971 -0.192518,0.123123 -0.05408,1.12e-4 -0.135174,-0.01931 -0.154771,-0.03705 -0.01941,-0.01757 -0.01958,-0.02922 -0.002,-0.140674 l 0.0055,-0.03457 -0.0176,0.02469 c -0.0778,0.109159 -0.15493,0.158026 -0.249422,0.158026 -0.05087,0 -0.06123,-0.0032 -0.07408,-0.0228 -0.0135,-0.02061 -0.01302,-0.02974 0.0051,-0.09509 0.01102,-0.03976 0.01824,-0.07408 0.01605,-0.07628 -0.01029,-0.01029 -0.03385,0.04665 -0.03949,0.09543 -0.0054,0.04716 -3.36e-4,0.07332 0.03858,0.197533 0.02467,0.07875 0.06472,0.223177 0.089,0.320956 0.05504,0.221692 0.181793,0.852578 0.181793,0.904879 0,0.02136 -0.0084,0.06269 -0.01863,0.09184 l -0.01863,0.053 0.02377,0.01083 c 0.01307,0.006 0.02753,0.02088 0.03214,0.03317 0.0046,0.01229 0.01564,0.104567 0.02452,0.205062 0.03792,0.429194 0.04758,0.80218 0.02234,0.862594 -0.01209,0.02893 -0.01158,0.0347 0.0048,0.05494 0.03114,0.03846 0.03905,0.09333 0.03891,0.270049 -1.86e-4,0.223909 -0.01239,0.264464 -0.0919,0.305027 -0.163396,0.08336 -0.396835,0.115607 -0.595113,0.08221 z M 2.424631,2.1553945 c -0.0026,-0.01358 -0.0059,-0.02469 -0.0074,-0.02469 -0.0014,0 -0.0048,0.01111 -0.0074,0.02469 -0.003,0.01545 -1.98e-4,0.02469 0.0074,0.02469 0.0076,0 0.01031,-0.0092 0.0074,-0.02469 z m 0.922858,-0.0463 c -0.0032,-0.0079 -0.0055,-0.0055 -0.006,0.006 -4.3e-4,0.01041 0.0019,0.01625 0.0052,0.01296 0.0033,-0.0033 0.0036,-0.0118 7.8e-4,-0.01893 z m 0.366504,-0.135616 c -0.03959,-0.04845 -0.0729,-0.08716 -0.07403,-0.08603 -0.0011,0.0011 0.0048,0.02187 0.01313,0.0461 0.0083,0.02423 0.01367,0.06294 0.01184,0.08604 l -0.0033,0.04198 h 0.06219 0.06219 z"
       id="path1" /></g></svg>
