<?xml version="1.0" encoding="UTF-8" standalone="no"?>
<!-- Created with Inkscape (http://www.inkscape.org/) -->

<svg
   width="6mm"
   height="6mm"
   viewBox="0 0 6 6"
   version="1.1"
   id="svg1"
   xml:space="preserve"
   sodipodi:docname="party.svg"
   inkscape:version="1.4.4 (dcaf3e7d9e, 2026-05-05)"
   xmlns:inkscape="http://www.inkscape.org/namespaces/inkscape"
   xmlns:sodipodi="http://sodipodi.sourceforge.net/DTD/sodipodi-0.dtd"
   xmlns="http://www.w3.org/2000/svg"
   xmlns:svg="http://www.w3.org/2000/svg"><sodipodi:namedview
     id="namedview1"
     pagecolor="#ffffff"
     bordercolor="#000000"
     borderopacity="0.25"
     inkscape:showpageshadow="2"
     inkscape:pageopacity="0.0"
     inkscape:pagecheckerboard="0"
     inkscape:deskcolor="#d1d1d1"
     inkscape:document-units="mm"
     inkscape:zoom="10.621518"
     inkscape:cx="19.112145"
     inkscape:cy="16.334765"
     inkscape:window-width="1920"
     inkscape:window-height="1024"
     inkscape:window-x="0"
     inkscape:window-y="32"
     inkscape:window-maximized="1"
     inkscape:current-layer="layer1" /><defs
     id="defs1" /><g
     inkscape:label="Layer 1"
     inkscape:groupmode="layer"
     id="layer1"><path
       style="fill:#1e1f27;fill-opacity:1;stroke-width:0.0506245"
       d="m 0.42910457,5.8800169 c -0.253473,-0.04272 -0.45505,-0.299731 -0.426384,-0.543636 0.0085,-0.07246 0.02089,-0.121439 0.183721,-0.727472 0.05245,-0.195223 0.157156,-0.587009 0.232669,-0.870636 0.357934,-1.344399 0.352861,-1.328163 0.458285,-1.466686 0.13916403,-0.182858 0.40035503,-0.200498 0.77129003,-0.05209 0.06548,0.0262 0.122229,0.04446 0.126112,0.04057 0.0039,-0.0039 0.0129,-0.06014 0.02003,-0.125018 0.02659,-0.241816 -0.02816,-0.542228 -0.145381,-0.797606 -0.07477,-0.162906 -0.08087,-0.226946 -0.03033,-0.318566 0.07885,-0.14293597 0.286171,-0.16958397 0.396881,-0.05101 0.0385,0.04124 0.140627,0.25803297 0.183246,0.38900397 0.07772,0.238846 0.09536,0.358718 0.09518,0.646826 -1.27e-4,0.202721 -0.0059,0.296412 -0.02388,0.385147 -0.01304,0.06449 -0.02682,0.125331 -0.0306,0.135197 -0.0042,0.01102 0.03245,0.04754 0.09514,0.09472 0.05611,0.04223 0.163382,0.129378 0.238379,0.193656 l 0.13636,0.11687 0.04321,-0.02928 c 0.156063,-0.105735 0.378124,0.01684 0.378124,0.208722 0,0.04908 -0.03968,0.150928 -0.06488,0.166498 -0.01366,0.0084 0.112192,0.175774 0.131297,0.174561 0.0043,-2.73e-4 0.08356,-0.02528 0.176104,-0.05558 0.297685,-0.09744 0.5566,-0.138144 0.878808,-0.138144 0.446143,0 0.839162,0.09151 1.247611,0.290487 0.08337,0.04061 0.172031,0.09429 0.197025,0.119287 0.15438,0.154381 0.04195,0.420679 -0.177602,0.420679 -0.0516,0 -0.09668,-0.01584 -0.225904,-0.07934 -0.529787,-0.26038 -1.090787,-0.31686 -1.652887,-0.166408 -0.06999,0.01873 -0.131169,0.03647 -0.135963,0.03942 -0.0048,0.0029 0.02657,0.07336 0.0697,0.156474 0.144104,0.277683 0.217552,0.556972 0.189039,0.718838 -0.02024,0.114891 -0.04882,0.166498 -0.13459,0.242975 -0.130433,0.116306 -0.07758,0.09934 -1.434786,0.460725 -0.283626,0.07552 -0.678426,0.180942 -0.877333,0.234264 -0.78965103,0.211688 -0.76690503,0.206908 -0.88769703,0.186549 z M 4.7258456,4.8731139 c -0.13683,-0.07236 -0.143632,-0.250519 -0.01325,-0.347038 0.0539,-0.0399 0.121006,-0.04455 0.191686,-0.01329 0.153915,0.06808 0.159352,0.286167 0.0091,0.365998 -0.06203,0.03296 -0.117689,0.03128 -0.187561,-0.0057 z m -0.636653,-1.795696 c -0.06488,-0.02946 -0.123958,-0.1067 -0.134286,-0.175571 -0.01464,-0.09765 0.02974,-0.17066 0.161324,-0.265382 0.119374,-0.08593 0.355845,-0.206639 0.488896,-0.249557 0.269136,-0.08681 0.59816,-0.11612 0.857198,-0.07635 0.174426,0.02678 0.377374,0.08346 0.432959,0.120919 0.141507,0.09536 0.139231,0.282778 -0.0046,0.379896 -0.0591,0.03991 -0.142363,0.03505 -0.31445,-0.01835 -0.113957,-0.03536 -0.134467,-0.03741 -0.375043,-0.03759 -0.219224,-1.62e-4 -0.268741,0.0038 -0.357301,0.02841 -0.165422,0.04602 -0.296012,0.106606 -0.447651,0.207675 -0.154713,0.103118 -0.225489,0.122918 -0.307032,0.08589 z m -0.713428,-0.513339 c -0.06968,-0.03434 -0.103381,-0.09258 -0.103381,-0.17864 0,-0.04052 0.0044,-0.08916 0.0097,-0.108084 l 0.0097,-0.03441 -0.112704,0.0059 c -0.229543,0.01205 -0.411473,-0.06975 -0.525394,-0.236217 -0.07809,-0.114111 -0.102563,-0.204239 -0.09482,-0.34918 0.0078,-0.146502 0.04883,-0.241353 0.150345,-0.347779 0.129243,-0.135498 0.306659,-0.196621 0.483023,-0.166411 0.116502,0.01996 0.245694,0.08227 0.325686,0.157094 l 0.06541,0.06119 0.07421,-0.191089 c 0.11466,-0.29525897 0.197507,-0.58454997 0.197507,-0.68967297 0,-0.05104 0.04933,-0.144826 0.09029,-0.171663 0.109563,-0.07179 0.247205,-0.03604 0.307484,0.07987 0.05547,0.106652 -0.01693,0.446587 -0.19286,0.90550197 -0.0912,0.237902 -0.139237,0.335018 -0.242227,0.489711 l -0.07972,0.119734 -0.0071,0.154036 c -0.0082,0.177998 -0.04045,0.347173 -0.07952,0.416995 -0.05213,0.09315 -0.178166,0.131153 -0.275639,0.08311 z m -0.156852,-0.74885 c 0.02439,-0.01157 0.05428,-0.03202 0.06643,-0.04545 0.02038,-0.02252 0.02042,-0.0284 5.77e-4,-0.07589 -0.03027,-0.07244 -0.06669,-0.106646 -0.133475,-0.125344 -0.04536,-0.0127 -0.06458,-0.01265 -0.08946,2.48e-4 -0.05447,0.02822 -0.07777,0.05532 -0.0862,0.100254 -0.02248,0.119818 0.11842,0.204882 0.242129,0.146178 z M 0.75268257,1.5159669 c -0.03032,-0.01377 -0.07252,-0.04783 -0.09376,-0.07568 -0.03426,-0.04491 -0.03863,-0.06149 -0.03863,-0.14649 0,-0.085 0.0044,-0.101577 0.03863,-0.146491 0.06746,-0.08844 0.194686,-0.124506 0.293523,-0.08321 0.07649,0.03196 0.15659503,0.149461 0.15659503,0.2297 0,0.04308 -0.03381,0.121091 -0.07069,0.163094 -0.07519,0.08564 -0.17962103,0.107233 -0.28566403,0.05908 z m 4.05561403,-0.0024 c -0.164899,-0.08379 -0.180153,-0.322326 -0.02709,-0.423617 0.157712,-0.10436897 0.365307,-0.0052 0.383406,0.183157 0.01823,0.189704 -0.185558,0.327229 -0.356316,0.24046 z M 1.9969036,0.50945193 c -0.06773,-0.01435 -0.111106,-0.05005 -0.139907,-0.115159 -0.03424,-0.0774 -0.02338,-0.150498 0.03167,-0.213198 0.102232,-0.116436 0.279545,-0.08338 0.338129,0.06303 0.05927,0.148128 -0.07137,0.298901 -0.229892,0.265322 z"
       id="path1" /></g></svg>
