<?xml version="1.0" encoding="UTF-8" standalone="no"?>
<!-- Created with Inkscape (http://www.inkscape.org/) -->

<svg
   width="6mm"
   height="6mm"
   viewBox="0 0 6 6"
   version="1.1"
   id="svg1"
   xml:space="preserve"
   inkscape:version="1.4.4 (dcaf3e7d9e, 2026-05-05)"
   sodipodi:docname="phi.svg"
   xmlns:inkscape="http://www.inkscape.org/namespaces/inkscape"
   xmlns:sodipodi="http://sodipodi.sourceforge.net/DTD/sodipodi-0.dtd"
   xmlns="http://www.w3.org/2000/svg"
   xmlns:svg="http://www.w3.org/2000/svg"><sodipodi:namedview
     id="namedview1"
     pagecolor="#ffffff"
     bordercolor="#000000"
     borderopacity="0.25"
     inkscape:showpageshadow="2"
     inkscape:pageopacity="0.0"
     inkscape:pagecheckerboard="0"
     inkscape:deskcolor="#d1d1d1"
     inkscape:document-units="mm"
     inkscape:zoom="0.73139029"
     inkscape:cx="396.50513"
     inkscape:cy="561.25984"
     inkscape:window-width="1920"
     inkscape:window-height="1024"
     inkscape:window-x="0"
     inkscape:window-y="32"
     inkscape:window-maximized="1"
     inkscape:current-layer="layer1" /><defs
     id="defs1" /><g
     inkscape:label="Layer 1"
     inkscape:groupmode="layer"
     id="layer1"><path
       style="fill:#1e1f27;fill-opacity:1;stroke-width:0.083074"
       d="M 2.7089175,5.962868 C 2.6697075,5.943538 2.6180475,5.896048 2.5941195,5.857336 2.5135795,5.727022 2.4225145,5.27257 2.3622765,4.700362 L 2.3493575,4.577637 2.2257005,4.538658 C 2.0487545,4.482878 1.7243565,4.311887 1.5696655,4.192854 1.2489535,3.946073 0.95868948,3.568514 0.81035448,3.205187 c -0.126951,-0.310948 -0.160514,-0.498156 -0.15917,-0.88782 0.0011,-0.308067 0.0084,-0.378938 0.05945,-0.57148 0.09912,-0.374096 0.29369602,-0.732297 0.55177402,-1.01579199 0.35222,-0.386908 0.942205,-0.685115 1.43433,-0.724981 0.141102,-0.01143 0.170959,-0.0066 0.27475,0.04463 0.148056,0.07305 0.219648,0.175353 0.23268,0.332501 0.01742,0.210117 -0.08184,0.410302 -0.361628,0.72927599 -0.139884,0.159476 -0.208709,0.193257 -0.363443,0.17839 -0.09521,-0.0091 -0.125437,-0.02366 -0.185247,-0.08892 -0.09002,-0.09823 -0.113107,-0.20909099 -0.06764,-0.32484099 0.01866,-0.04752 0.02646,-0.08639 0.01732,-0.08639 -0.0449,0 -0.330119,0.207307 -0.455542,0.33110199 -0.558061,0.550818 -0.666481,1.394693 -0.266683,2.075708 0.121978,0.207779 0.380943,0.462866 0.599046,0.590077 0.09646,0.05626 0.18795,0.102294 0.203314,0.102294 0.01974,0 0.02793,-0.04209 0.02793,-0.143496 0,-0.621187 0.213864,-1.634282 0.458709,-2.172959 0.279614,-0.61516399 0.747304,-0.98054599 1.255103,-0.98054599 0.63151,0 1.086382,0.45752699 1.256516,1.26384999 0.04327,0.205093 0.03289,0.666351 -0.02032,0.902486 -0.235278,1.044136 -1.098329,1.818756 -2.109273,1.89315 -0.177374,0.01305 -0.181326,0.01459 -0.180932,0.07052 8.47e-4,0.120105 0.06818,0.528365 0.123737,0.750288 l 0.05797,0.231529 -0.0456,0.10308 c -0.07738,0.174924 -0.264925,0.241641 -0.438597,0.156024 z m 0.60524,-1.976724 c 0.662719,-0.135634 1.174809,-0.639566 1.347705,-1.326234 0.06104,-0.242446 0.05113,-0.659243 -0.021,-0.882638 -0.06213,-0.192418 -0.198582,-0.399165 -0.313751,-0.475381 -0.07985,-0.05284 -0.11499,-0.06154 -0.248466,-0.06154 -0.174479,0 -0.293352,0.0536 -0.422415,0.190453 -0.228653,0.242464 -0.437523,0.76842 -0.557389,1.403568 -0.05584,0.295868 -0.109265,0.791314 -0.109575,1.016104 l -2.49e-4,0.170345 h 0.07786 c 0.04282,0 0.154094,-0.0156 0.247274,-0.03467 z"
       id="path1"
       sodipodi:nodetypes="ssscsssssssssssssssssssssssssscsssssssssccsss" /></g></svg>
