<?xml version="1.0" encoding="UTF-8" standalone="no"?>
<!-- Created with Inkscape (http://www.inkscape.org/) -->

<svg
   width="6mm"
   height="6mm"
   viewBox="0 0 6 6"
   version="1.1"
   id="svg1"
   xml:space="preserve"
   sodipodi:docname="run.svg"
   inkscape:version="1.4.4 (dcaf3e7d9e, 2026-05-05)"
   xmlns:inkscape="http://www.inkscape.org/namespaces/inkscape"
   xmlns:sodipodi="http://sodipodi.sourceforge.net/DTD/sodipodi-0.dtd"
   xmlns="http://www.w3.org/2000/svg"
   xmlns:svg="http://www.w3.org/2000/svg"><sodipodi:namedview
     id="namedview1"
     pagecolor="#ffffff"
     bordercolor="#000000"
     borderopacity="0.25"
     inkscape:showpageshadow="2"
     inkscape:pageopacity="0.0"
     inkscape:pagecheckerboard="0"
     inkscape:deskcolor="#d1d1d1"
     inkscape:document-units="mm"
     inkscape:zoom="11.128625"
     inkscape:cx="4.672635"
     inkscape:cy="18.016602"
     inkscape:window-width="1920"
     inkscape:window-height="1024"
     inkscape:window-x="0"
     inkscape:window-y="32"
     inkscape:window-maximized="1"
     inkscape:current-layer="layer1" /><defs
     id="defs1" /><g
     inkscape:label="Layer 1"
     inkscape:groupmode="layer"
     id="layer1"><text
       xml:space="preserve"
       style="font-style:normal;font-variant:normal;font-weight:normal;font-stretch:normal;font-size:14.1111px;line-height:0.9;font-family:'Fredoka dingbats';-inkscape-font-specification:'Fredoka dingbats';letter-spacing:-0.291042px;writing-mode:lr-tb;direction:ltr;fill:#1e1f27;fill-opacity:1;stroke-width:2;stroke-linecap:round;stroke-linejoin:round"
       x="-12.363758"
       y="-3.3485177"
       id="text1"><tspan
         sodipodi:role="line"
         style="stroke-width:2"
         x="-12.363758"
         y="-3.3485177"
         id="tspan2" /></text><path
       style="fill:#1e1f27;fill-opacity:1;stroke-width:0.054549"
       d="m 2.609394,5.9824543 c -0.109569,-0.02467 -0.173011,-0.05435 -0.237847,-0.111281 -0.138892,-0.121949 -0.142073,-0.290637 -0.0082,-0.433562 0.03609,-0.03852 0.09468,-0.08506 0.13021,-0.103423 0.0542,-0.02801 0.06757,-0.04368 0.08312,-0.09736 0.05229,-0.180587 0.05661,-0.617498 0.0097,-0.979453 -0.06905,-0.532665 -0.250526,-0.983698 -0.480971,-1.19542 -0.02049,-0.01882 -0.0721,-0.05086 -0.114688,-0.07119 -0.06663,-0.03181 -0.0908,-0.03592 -0.173193,-0.02944 -0.07943,0.0062 -0.12898,0.02346 -0.290599,0.100932 -0.228547,0.109561 -0.310179,0.1319 -0.476281,0.130336 -0.21725003,-0.002 -0.42886503,-0.08141 -0.61718403,-0.231482 -0.235949,-0.188022 -0.354672,-0.408924 -0.354912,-0.660365 -1.31e-4,-0.134604 0.03045,-0.218237 0.107011,-0.292629 0.126239,-0.122671 0.393774,-0.117199 0.509064,0.01041 0.04904,0.05429 0.09623,0.171337 0.09623,0.238703 0,0.06316 0.06978,0.173971 0.13135,0.208573 0.05143,0.0289 0.07394,0.03247 0.16991703,0.02691 0.175204,-0.01014 0.312817,-0.08735 0.451167,-0.253131 0.06835,-0.0819 0.146436,-0.238842 0.17602,-0.353767 l 0.02136,-0.08297 -0.117696,-0.0606 C 1.279139,1.5652103 1.077303,1.1725063 1.135933,0.7946313 c 0.03389,-0.218448 0.11056,-0.36952 0.26873,-0.529534 0.286886,-0.290231 0.754475,-0.34995 1.100536,-0.140556 0.18002,0.108926 0.326278,0.286338 0.405026,0.491301 0.03383,0.08805 0.03738,0.116517 0.03731,0.299358 -5.5e-5,0.180598 -0.0042,0.214256 -0.03863,0.316901 -0.02121,0.06316 -0.03706,0.116344 -0.03523,0.118177 0.0018,0.0018 0.06814,-0.01197 0.147352,-0.03067 0.532499,-0.125726 0.933548,-0.163916 1.211794,-0.115394 0.352017,0.06139 0.68142,0.282946 0.806117,0.542201 0.176688,0.367351 0.02898,0.737624 -0.294244,0.737624 -0.178604,0 -0.314208,-0.142272 -0.31615,-0.331695 -0.0013,-0.123658 -0.07341,-0.217306 -0.192524,-0.249929 -0.0864,-0.02366 -0.279463,-0.01961 -0.354536,0.0075 -0.193408,0.06971 -0.297576,0.236023 -0.260333,0.415645 0.04584,0.221075 0.36715,0.735945 0.700595,1.122633 0.178486,0.206986 0.297106,0.278039 0.465654,0.278926 0.122806,6.45e-4 0.173818,-0.02597 0.338322,-0.176508 0.147772,-0.135227 0.231396,-0.170795 0.361108,-0.153588 0.153384,0.02035 0.324291,0.151381 0.401244,0.307631 0.02911,0.0591 0.03359,0.08962 0.03337,0.227036 -2.73e-4,0.16871 -0.01983,0.235276 -0.07832,0.266578 -0.04118,0.02204 -0.152997,0.01801 -0.214146,-0.0077 -0.02951,-0.01241 -0.0851,-0.0286 -0.123532,-0.03596 -0.112488,-0.02155 -0.177478,0.0033 -0.317817,0.12134 -0.218444,0.183791 -0.346698,0.240279 -0.545544,0.240279 -0.19607,0 -0.310815,-0.04147 -0.562493,-0.203305 -0.253593,-0.163063 -0.349488,-0.188316 -0.474814,-0.12504 -0.05105,0.02577 -0.07291,0.04943 -0.105951,0.114638 -0.04048,0.07989 -0.04216,0.09212 -0.06081,0.441712 -0.02628,0.492891 -0.0622,0.699558 -0.157771,0.907811 -0.125167,0.272751 -0.376761,0.396685 -0.67086,0.330464 z"
       id="path81" /></g></svg>
