<?xml version="1.0" encoding="UTF-8" standalone="no"?>
<!-- Created with Inkscape (http://www.inkscape.org/) -->

<svg
   width="6mm"
   height="6mm"
   viewBox="0 0 6 6"
   version="1.1"
   id="svg1"
   xml:space="preserve"
   sodipodi:docname="sun.svg"
   inkscape:version="1.4.4 (dcaf3e7d9e, 2026-05-05)"
   xmlns:inkscape="http://www.inkscape.org/namespaces/inkscape"
   xmlns:sodipodi="http://sodipodi.sourceforge.net/DTD/sodipodi-0.dtd"
   xmlns="http://www.w3.org/2000/svg"
   xmlns:svg="http://www.w3.org/2000/svg"><sodipodi:namedview
     id="namedview1"
     pagecolor="#ffffff"
     bordercolor="#000000"
     borderopacity="0.25"
     inkscape:showpageshadow="2"
     inkscape:pageopacity="0.0"
     inkscape:pagecheckerboard="0"
     inkscape:deskcolor="#d1d1d1"
     inkscape:document-units="mm"
     inkscape:zoom="0.12375921"
     inkscape:cx="-16.160413"
     inkscape:cy="-2436.1823"
     inkscape:window-width="1920"
     inkscape:window-height="1024"
     inkscape:window-x="0"
     inkscape:window-y="32"
     inkscape:window-maximized="1"
     inkscape:current-layer="layer1" /><defs
     id="defs1" /><g
     inkscape:label="Layer 1"
     inkscape:groupmode="layer"
     id="layer1"><path
       style="fill:#000000;stroke-width:0.0443751"
       d="m 2.92166,5.9915204 c -0.0978,-0.0203 -0.16948,-0.078 -0.21753,-0.17489 -0.0246,-0.0497 -0.0271,-0.0725 -0.0307,-0.28575 -0.004,-0.26302 0.006,-0.32416 0.0714,-0.40967 0.0211,-0.0277 0.0642,-0.0634 0.0964,-0.08 0.0491,-0.0253 0.0741,-0.03 0.15871,-0.03 0.0847,0 0.10958,0.005 0.15871,0.03 0.0323,0.0166 0.0753,0.0523 0.0965,0.08 0.0652,0.0855 0.0759,0.14665 0.0714,0.40967 -0.004,0.21321 -0.006,0.23604 -0.0307,0.28575 -0.069,0.13916 -0.21583,0.20778 -0.37423,0.17489 z m -1.81489,-0.72117 c -0.094,-0.0335 -0.19364,-0.14121 -0.22098,-0.23878 -0.0174,-0.062 -0.007,-0.14262 0.0266,-0.21354 0.0347,-0.0725 0.30843,-0.35084 0.38852,-0.39507 0.0521,-0.0288 0.0744,-0.0338 0.14928,-0.0339 0.10431,-1.4e-4 0.15207,0.0197 0.2302,0.0956 0.0677,0.0658 0.098,0.13239 0.0983,0.21623 4.9e-4,0.12548 -0.0219,0.16388 -0.2042,0.34995 -0.13068,0.13339 -0.18016,0.17588 -0.23583,0.20252 -0.0788,0.0377 -0.15765,0.0435 -0.2319,0.017 z m 3.55458,-0.0162 c -0.0548,-0.0268 -0.10711,-0.0719 -0.23583,-0.20327 -0.18228,-0.18607 -0.20469,-0.22447 -0.2042,-0.34995 3.2e-4,-0.0838 0.0306,-0.15045 0.0983,-0.21623 0.0781,-0.0759 0.12589,-0.0958 0.2302,-0.0956 0.12436,1.6e-4 0.17429,0.0308 0.36137,0.22166 0.17649,0.18006 0.20752,0.23196 0.20785,0.34765 2.6e-4,0.0862 -0.019,0.13462 -0.0837,0.21019 -0.0631,0.0738 -0.13242,0.10917 -0.22515,0.11506 -0.0687,0.004 -0.0871,7.1e-4 -0.14882,-0.0295 z m -1.84919,-0.60157 c -0.38222,-0.0473 -0.71632,-0.21001 -0.9867,-0.48038 -0.24359,-0.24359 -0.40449,-0.54846 -0.46498,-0.88103 -0.0274,-0.15079 -0.0274,-0.43624 0,-0.58704 0.11771,-0.64718 0.6213,-1.17834 1.25783,-1.32668 0.56572,-0.13185 1.14312,0.0335 1.55647,0.44576 0.24282,0.24218 0.40423,0.54811 0.46476,0.88092 0.0273,0.15024 0.0273,0.43629 -1.3e-4,0.58502 -0.0623,0.33822 -0.22048,0.6387 -0.46484,0.88305 -0.24266,0.24267 -0.55154,0.40601 -0.87515,0.46283 -0.13251,0.0233 -0.37163,0.0319 -0.48725,0.0175 z m -2.59474,-1.34555 c -0.14317,-0.0494 -0.21538,-0.15315 -0.21538,-0.30938 0,-0.14278 0.055,-0.23462 0.17648,-0.29471 0.0527,-0.0261 0.0721,-0.0282 0.28823,-0.0319 0.26302,-0.004 0.32416,0.006 0.40967,0.0714 0.0277,0.0211 0.0634,0.0642 0.08,0.0964 0.0253,0.0491 0.03,0.0741 0.03,0.15871 0,0.0847 -0.005,0.10958 -0.03,0.15871 -0.0361,0.0702 -0.10804,0.12783 -0.18986,0.15212 -0.0859,0.0255 -0.47408,0.0245 -0.54917,-10e-4 z m 5.00403,-0.002 c -0.0822,-0.029 -0.14246,-0.0794 -0.17847,-0.14937 -0.0246,-0.0479 -0.0294,-0.0734 -0.0294,-0.15757 0,-0.0847 0.005,-0.10958 0.03,-0.15871 0.0166,-0.0323 0.0523,-0.0753 0.08,-0.0964 0.0854,-0.0652 0.14667,-0.0759 0.40967,-0.0715 0.21532,0.004 0.2357,0.006 0.28778,0.0314 0.12129,0.0597 0.17693,0.15258 0.17693,0.29527 0,0.14204 -0.0562,0.23497 -0.17896,0.29592 -0.0502,0.0249 -0.071,0.027 -0.29471,0.0299 -0.20995,0.003 -0.24863,2.6e-4 -0.30286,-0.0188 z m -4.05302,-1.54775 c -0.0403,-0.0146 -0.0937,-0.0594 -0.22483,-0.18847 -0.14186,-0.13969 -0.17761,-0.18187 -0.204,-0.24067 -0.0273,-0.0608 -0.0311,-0.0822 -0.026,-0.14535 0.018,-0.22428004 0.26312,-0.37065004 0.46075,-0.27512004 0.0773,0.0374 0.35452,0.30799004 0.39874,0.38925004 0.0834,0.15315 0.0361,0.32239 -0.12005,0.42993 -0.0575,0.0396 -0.0722,0.0443 -0.14779,0.0468 -0.0544,0.002 -0.10252,-0.004 -0.13677,-0.0163 z m 3.41895,-0.005 c -0.0625,-0.0309 -0.14423,-0.11129 -0.17382,-0.17086 -0.0159,-0.0321 -0.0222,-0.0698 -0.0221,-0.13287 1.7e-4,-0.12436 0.0308,-0.17429 0.22166,-0.36137 0.18006,-0.17648004 0.23196,-0.20751004 0.34765,-0.20784004 0.0862,-2.7e-4 0.13462,0.019 0.21019,0.0837 0.0712,0.061 0.10847,0.13192004 0.11554,0.22001004 0.005,0.0632 10e-4,0.0845 -0.026,0.14535 -0.0264,0.0588 -0.0621,0.10091 -0.20399,0.24058 -0.14178,0.13953 -0.18217,0.17271 -0.22986,0.1888 -0.0813,0.0274 -0.17712,0.0252 -0.23919,-0.006 z M 2.8826,0.97332036 c -0.0747,-0.0242 -0.13406,-0.0779 -0.17243,-0.15608 l -0.033,-0.0673 v -0.2583 c 0,-0.24875 0.001,-0.26039 0.028,-0.31481 0.0604,-0.12159 0.15208,-0.17647999553 0.29482,-0.17647999553 0.14279,0 0.23463,0.0549999955 0.29471,0.17647999553 0.0261,0.0527 0.0282,0.0721 0.0319,0.28823 0.004,0.26302 -0.006,0.32416 -0.0714,0.40967 -0.0539,0.0707 -0.12979,0.10677 -0.23501,0.1117 -0.0527,0.002 -0.10468,-0.002 -0.13756,-0.0131 z"
       id="path1" /></g></svg>
