<?xml version="1.0" encoding="UTF-8" standalone="no"?>
<!-- Created with Inkscape (http://www.inkscape.org/) -->

<svg
   width="6mm"
   height="6mm"
   viewBox="0 0 6 6"
   version="1.1"
   id="svg1"
   xml:space="preserve"
   sodipodi:docname="theatre.svg"
   inkscape:version="1.4.4 (dcaf3e7d9e, 2026-05-05)"
   xmlns:inkscape="http://www.inkscape.org/namespaces/inkscape"
   xmlns:sodipodi="http://sodipodi.sourceforge.net/DTD/sodipodi-0.dtd"
   xmlns="http://www.w3.org/2000/svg"
   xmlns:svg="http://www.w3.org/2000/svg"><sodipodi:namedview
     id="namedview1"
     pagecolor="#ffffff"
     bordercolor="#000000"
     borderopacity="0.25"
     inkscape:showpageshadow="2"
     inkscape:pageopacity="0.0"
     inkscape:pagecheckerboard="0"
     inkscape:deskcolor="#d1d1d1"
     inkscape:document-units="mm"
     inkscape:zoom="14.669325"
     inkscape:cx="7.2941326"
     inkscape:cy="-4.1242526"
     inkscape:window-width="1920"
     inkscape:window-height="1024"
     inkscape:window-x="0"
     inkscape:window-y="32"
     inkscape:window-maximized="1"
     inkscape:current-layer="layer1-4" /><defs
     id="defs1" /><g
     inkscape:label="Layer 1"
     inkscape:groupmode="layer"
     id="layer1"><text
       xml:space="preserve"
       style="font-style:normal;font-variant:normal;font-weight:normal;font-stretch:normal;font-size:14.1111px;line-height:0.9;font-family:'Fredoka dingbats';-inkscape-font-specification:'Fredoka dingbats';letter-spacing:-0.291042px;writing-mode:lr-tb;direction:ltr;fill:#1e1f27;fill-opacity:1;stroke-width:2;stroke-linecap:round;stroke-linejoin:round"
       x="-12.363758"
       y="-3.3485177"
       id="text1"><tspan
         sodipodi:role="line"
         style="stroke-width:2"
         x="-12.363758"
         y="-3.3485177"
         id="tspan2" /></text><g
       inkscape:label="Calque 1"
       id="layer1-4"
       transform="translate(-686.03125,-486.29583)"><path
         style="fill:#1e1f27;stroke-width:0.0472461;fill-opacity:1"
         d="m 690.33178,491.88091 c -0.3159,-0.0405 -0.6628,-0.13635 -0.86132,-0.23787 -0.22363,-0.11435 -0.39823,-0.2884 -0.51887,-0.51721 -0.0463,-0.0878 -0.0654,-0.11286 -0.086,-0.11286 -0.0576,0 -0.13628,0.0543 -0.23126,0.15965 -0.22538,0.24989 -0.3084,0.31537 -0.44948,0.35449 -0.15057,0.0418 -0.38263,0.0257 -0.51383,-0.0356 -0.0365,-0.0171 -0.0644,-0.033 -0.062,-0.0355 0.002,-0.002 0.0464,-0.0109 0.0977,-0.0188 0.10655,-0.0164 0.28699,-0.0702 0.28699,-0.0856 0,-0.006 -0.0198,-0.0135 -0.044,-0.0175 -0.0765,-0.0124 -0.22628,-0.0933 -0.29586,-0.15979 -0.0365,-0.0349 -0.0551,-0.0596 -0.0414,-0.0549 0.0648,0.0221 0.25723,0.0558 0.31962,0.0559 0.15798,3.7e-4 0.23704,-0.0503 0.37977,-0.24328 0.0813,-0.10996 0.18566,-0.21415 0.24426,-0.2439 0.0241,-0.0123 0.0762,-0.029 0.11577,-0.0371 0.0395,-0.008 0.0719,-0.018 0.0719,-0.0218 0,-0.0104 -0.1255,-0.39598 -0.13055,-0.40102 -0.002,-0.002 -0.0556,0.0248 -0.11819,0.0604 -0.14927,0.0849 -0.31578,0.15595 -0.45642,0.19486 -0.15679,0.0434 -0.36776,0.0533 -0.5011,0.0237 -0.20082,-0.0447 -0.42328,-0.19662 -0.60252,-0.41153 l -0.051,-0.0611 -0.0956,0.0661 c -0.15761,0.10895 -0.35898,0.34506 -0.43964,0.51547 -0.0122,0.0258 -0.0275,0.0469 -0.034,0.0469 -0.0213,0 -10e-4,-0.27441 0.0259,-0.35912 0.0248,-0.0766 0.0248,-0.0776 8e-4,-0.0608 -0.0532,0.0373 -0.22749,0.19084 -0.25668,0.22616 l -0.031,0.0375 0.007,-0.0845 c 0.0137,-0.16619 0.10033,-0.32572 0.27038,-0.49768 0.0982,-0.0993 0.2743,-0.23432 0.32971,-0.25279 0.008,-0.003 -0.002,-0.0509 -0.0266,-0.12853 -0.022,-0.0682 -0.0434,-0.13902 -0.0476,-0.15727 -0.006,-0.0254 -0.0175,-0.035 -0.0495,-0.041 -0.1411,-0.0265 -0.3386,-0.18233 -0.41577,-0.32813 -0.0524,-0.099 -0.0904,-0.24773 -0.0901,-0.35281 9.5e-4,-0.3522 0.26006,-0.70926 0.59138,-0.81488 l 0.0942,-0.03 0.0396,-0.12501 c 0.10688,-0.33757 0.24106,-0.59639 0.38042,-0.73378 0.14311,-0.14109 0.41702,-0.22884 0.81299,-0.26046 0.45532,-0.0364 0.89718,0.0756 1.26259,0.32004 0.3109,0.20793 0.54441,0.54028 0.5436,0.77371 0,0.0278 -0.0134,0.11519 -0.0296,0.19425 -0.0162,0.0791 -0.0285,0.14492 -0.0275,0.14633 10e-4,10e-4 0.0552,-0.006 0.12024,-0.0168 0.16955,-0.0278 0.63405,-0.017 0.79329,0.0184 0.31732,0.0706 0.45359,0.17918 0.60564,0.48258 0.0347,0.0692 0.082,0.17293 0.10508,0.23057 l 0.042,0.10478 0.095,0.03 c 0.18998,0.0599 0.37267,0.21757 0.47149,0.40691 0.18098,0.34675 0.1081,0.79214 -0.16207,0.99047 l -0.0634,0.0465 v 0.0916 c 0,0.18703 -0.0636,0.39868 -0.20093,0.66881 -0.10934,0.21507 -0.19017,0.33089 -0.32299,0.46283 -0.13348,0.1326 -0.24118,0.19837 -0.37741,0.23048 -0.0972,0.0229 -0.29303,0.0228 -0.4733,-3.7e-4 z m 0.39959,-0.18095 c 0.22076,-0.0349 0.39166,-0.20517 0.58356,-0.58129 0.15014,-0.29428 0.19986,-0.47838 0.18719,-0.69309 -0.0272,-0.46016 -0.23972,-1.26851 -0.4457,-1.69491 -0.13744,-0.28452 -0.26639,-0.37406 -0.60127,-0.41753 -0.20866,-0.0271 -0.65511,-0.009 -0.78813,0.0317 -0.0145,0.004 -0.0307,0.0479 -0.0549,0.14652 -0.1794,0.73292 -0.37681,1.15392 -0.6896,1.47064 -0.0708,0.0717 -0.12876,0.13819 -0.12876,0.14775 0,0.01 0.0531,0.17736 0.11811,0.37291 0.20137,0.60614 0.3269,0.80634 0.60403,0.96332 0.1872,0.10603 0.60149,0.2166 0.94936,0.25336 0.14049,0.0149 0.17535,0.0149 0.26608,5.7e-4 z m -1.1242,-0.5979 c -0.0547,-0.10224 0.0531,-0.40871 0.20991,-0.59645 0.12679,-0.15183 0.31058,-0.27148 0.47743,-0.31081 0.10214,-0.0241 0.25544,-0.0242 0.36811,-4.2e-4 0.19904,0.0421 0.4066,0.18386 0.47556,0.32482 0.0385,0.0786 0.0484,0.18427 0.0179,0.19057 -0.0105,0.002 -0.0639,-0.0217 -0.11876,-0.053 -0.15118,-0.0864 -0.23375,-0.1088 -0.42645,-0.11572 -0.19517,-0.007 -0.32651,0.0148 -0.45317,0.0754 -0.10233,0.0489 -0.25644,0.19811 -0.39024,0.3778 -0.0971,0.13042 -0.13467,0.15569 -0.16027,0.10784 z m -0.26025,-1.09419 c -0.10208,-0.0487 -0.118,-0.11206 -0.0389,-0.15478 0.21724,-0.11726 0.40421,-0.28225 0.47386,-0.41815 0.0237,-0.0463 0.0509,-0.0872 0.0604,-0.0908 0.0858,-0.0331 0.121,0.30071 0.0484,0.45926 -0.0389,0.0849 -0.1096,0.15784 -0.19159,0.19757 -0.0476,0.0231 -0.087,0.0308 -0.17404,0.034 -0.0993,0.004 -0.12019,5.5e-4 -0.17815,-0.0271 z m 1.21283,-0.32606 c -0.17295,-0.0483 -0.32841,-0.22372 -0.32841,-0.37063 0,-0.0326 0.006,-0.0629 0.013,-0.0674 0.007,-0.004 0.0592,0.0146 0.11563,0.0423 0.12174,0.0597 0.24045,0.0859 0.43474,0.096 0.2001,0.0104 0.19915,0.0101 0.19915,0.0629 0,0.15915 -0.24112,0.29067 -0.43413,0.23679 z m -2.60198,0.6137 c 0.33755,-0.0862 0.69082,-0.29846 0.9027,-0.54238 0.28001,-0.32237 0.4367,-0.73116 0.63352,-1.65278 0.073,-0.34176 0.0654,-0.39982 -0.0779,-0.59378 -0.20666,-0.27976 -0.54074,-0.48198 -0.94464,-0.57179 -0.10235,-0.0228 -0.16071,-0.027 -0.37144,-0.0269 -0.27988,1.4e-4 -0.42371,0.0192 -0.60912,0.0806 -0.16706,0.0553 -0.2439,0.11287 -0.33189,0.24856 -0.17985,0.27738 -0.347,0.89008 -0.40335,1.4785 -0.021,0.21928 -0.01,0.53679 0.023,0.66022 0.11888,0.44547 0.44788,0.84132 0.77368,0.93088 0.10049,0.0276 0.27204,0.0229 0.40544,-0.0112 z m -0.25898,-0.57616 c -0.41108,-0.0894 -0.74107,-0.49034 -0.74724,-0.90783 -10e-4,-0.0903 0.002,-0.11264 0.0222,-0.1347 0.0471,-0.0523 0.0727,-0.0374 0.26573,0.15493 0.33311,0.33202 0.51814,0.42376 0.85425,0.42356 0.25463,-1.5e-4 0.49542,-0.0553 0.68949,-0.15789 0.12142,-0.0642 0.14207,-0.0594 0.13022,0.0299 -0.0414,0.31213 -0.54832,0.61376 -1.02448,0.60961 -0.0627,-5.5e-4 -0.14828,-0.008 -0.19019,-0.0176 z m 1.20017,-1.23042 c -0.14342,-0.13732 -0.28146,-0.18614 -0.48332,-0.17092 l -0.10938,0.008 v -0.0348 c 4.7e-4,-0.11784 0.1577,-0.20115 0.35585,-0.18832 0.14595,0.009 0.25891,0.0767 0.32895,0.19584 0.0284,0.0483 0.0339,0.0723 0.0339,0.14781 0,0.0636 -0.006,0.0956 -0.0187,0.10857 -0.0166,0.0163 -0.029,0.009 -0.10733,-0.0664 z m -1.11772,-0.30965 c -0.13746,-0.10943 -0.31087,-0.15134 -0.48127,-0.1163 -0.0412,0.008 -0.0941,0.0183 -0.11751,0.0217 -0.0423,0.006 -0.0425,0.006 -0.0343,-0.0349 0.0173,-0.0865 0.11915,-0.17629 0.24889,-0.21938 0.0834,-0.0277 0.23338,-0.0194 0.30291,0.0167 0.11301,0.0587 0.18052,0.17064 0.18098,0.30006 4.7e-4,0.0947 -0.0149,0.0996 -0.0997,0.032 z m 3.91365,1.88053 c 0.0827,-0.098 0.13064,-0.2372 0.12043,-0.34982 -0.008,-0.0915 -0.0575,-0.1948 -0.11822,-0.24809 -0.0472,-0.0414 -0.17479,-0.10658 -0.18627,-0.0951 -0.004,0.004 0.0189,0.10765 0.0499,0.23132 0.031,0.12366 0.0664,0.28446 0.0788,0.35733 0.0123,0.0729 0.0245,0.13247 0.027,0.13247 0.003,0 0.0153,-0.0127 0.0284,-0.0281 z m -5.14733,-1.1813 c 0.008,-0.20389 0.0206,-0.32651 0.0538,-0.52604 0.0107,-0.0642 0.0163,-0.11975 0.0125,-0.12355 -0.0146,-0.0147 -0.1493,0.0642 -0.20532,0.12021 -0.0323,0.0324 -0.0781,0.0951 -0.10178,0.13941 -0.0363,0.0681 -0.0438,0.0963 -0.0483,0.18198 -0.005,0.0898 -10e-4,0.10996 0.0284,0.17647 0.0371,0.0826 0.11088,0.16172 0.18803,0.20151 0.0275,0.0142 0.0533,0.026 0.0574,0.0263 0.004,2.8e-4 0.0109,-0.0881 0.0152,-0.19633 z"
         id="path81" /></g></g></svg>
