<?xml version="1.0" encoding="UTF-8" standalone="no"?>
<!-- Created with Inkscape (http://www.inkscape.org/) -->

<svg
   width="6mm"
   height="6mm"
   viewBox="0 0 6 6"
   version="1.1"
   id="svg1"
   xml:space="preserve"
   inkscape:version="1.4.4 (dcaf3e7d9e, 2026-05-05)"
   sodipodi:docname="tooth.svg"
   xmlns:inkscape="http://www.inkscape.org/namespaces/inkscape"
   xmlns:sodipodi="http://sodipodi.sourceforge.net/DTD/sodipodi-0.dtd"
   xmlns="http://www.w3.org/2000/svg"
   xmlns:svg="http://www.w3.org/2000/svg"><sodipodi:namedview
     id="namedview1"
     pagecolor="#ffffff"
     bordercolor="#000000"
     borderopacity="0.25"
     inkscape:showpageshadow="2"
     inkscape:pageopacity="0.0"
     inkscape:pagecheckerboard="0"
     inkscape:deskcolor="#d1d1d1"
     inkscape:document-units="mm"
     inkscape:zoom="17.309711"
     inkscape:cx="11.149811"
     inkscape:cy="10.081046"
     inkscape:window-width="1920"
     inkscape:window-height="1024"
     inkscape:window-x="0"
     inkscape:window-y="32"
     inkscape:window-maximized="1"
     inkscape:current-layer="layer1" /><defs
     id="defs1" /><g
     inkscape:label="Layer 1"
     inkscape:groupmode="layer"
     id="layer1"><path
       style="fill:#1e1f27;stroke-width:0.0578813;fill-opacity:1"
       d="m 3.8737794,5.949538 c -0.03645,-0.0278 -0.0833,-0.0812 -0.104106,-0.11869 l -0.03783,-0.0682 -6.08e-4,-0.49771 c -5.9e-4,-0.48271 -0.0019,-0.50355 -0.0422,-0.69071 -0.07333,-0.34021 -0.171594,-0.57419 -0.341912,-0.81408 -0.08758,-0.12335 -0.163005,-0.18507 -0.247498,-0.2025 -0.04782,-0.01 -0.05161,-0.007 -0.121993,0.10197 -0.136646,0.21098 -0.234311,0.48587 -0.290135,0.81662 -0.03724,0.22067 -0.03691,0.69449 6.43e-4,0.91887 0.03104,0.18545 0.02683,0.34659 -0.0114,0.43646 -0.03445,0.081 -0.124093,0.15314 -0.190231,0.15314 -0.01592,0 -0.108281,-0.0753 -0.205258,-0.16742 -0.548813,-0.52111 -0.959923,-1.21915 -1.131612,-1.92139 -0.07975,-0.3262 -0.09657,-0.47496 -0.09801,-0.86704 l -0.0013,-0.36006 -0.11028905,-0.22189 c -0.308183,-0.62004 -0.390902,-1.2887 -0.216939,-1.75365998 0.138853,-0.37112 0.44273605,-0.58966 0.88182905,-0.63419 0.306252,-0.0311 0.606456,0.0277 1.132501,0.22152 l 0.271065,0.0999 0.307626,-0.0993 c 0.75383,-0.24323 0.947684,-0.29155 1.121389,-0.27951 0.583803,0.0405 0.925925,0.4278 0.928991,1.05175998 8.22e-4,0.16673 -0.0045,0.20921 -0.0411,0.32926 -0.06495,0.21292 -0.207064,0.58178 -0.354023,0.91886 l -0.133533,0.30629 0.02496,0.15315 c 0.06972,0.42773 0.09212,1.16527 0.04636,1.52621 -0.09964,0.78592 -0.382375,1.34658 -0.824124,1.63422 -0.06636,0.0432 -0.126123,0.0786 -0.132811,0.0786 -0.0067,0 -0.04198,-0.0227 -0.07843,-0.0505 z m 0.206683,-0.35649 c 0.340431,-0.41818 0.509963,-0.892 0.561245,-1.56858 0.01966,-0.25943 0.01963,-0.51025 -1.16e-4,-0.80044 -0.01773,-0.26066 -0.04305,-0.40761 -0.09692,-0.56252 l -0.0382,-0.10983 0.142891,-0.2935 c 0.236781,-0.48636 0.38109,-0.86769 0.423201,-1.11831 0.05116,-0.30445998 -0.109386,-0.62134998 -0.385393,-0.76070998 -0.10749,-0.0543 -0.273792,-0.10673 -0.338369,-0.10673 -0.08227,0 -0.931819,0.21028 -0.931819,0.23065 0,0.0214 0.366697,0.0906 0.481129,0.0908 0.08418,1.7e-4 0.0581,0.0166 -0.06362,0.0402 -0.222316,0.043 -0.484369,0.0203 -0.922882,-0.0799 -0.711221,-0.16263 -1.016835,-0.20519 -1.264021,-0.17604 -0.173521,0.0205 -0.279765,0.0582 -0.382279,0.1358 -0.103361,0.0782 -0.164878,0.17489 -0.208543,0.32764 -0.0333,0.11649 -0.03646,0.1558 -0.03616,0.44925998 3.47e-4,0.33979 0.01227,0.43854 0.09342,0.77338 0.05215,0.21517 0.199397,0.65475 0.293694,0.87675 0.04204,0.099 0.07252,0.17995 0.06774,0.17995 -0.0048,0 -0.04967,-0.0357 -0.09976,-0.0792 l -0.09107,-0.0792 0.01074,0.12898 c 0.06622,0.79557 0.372685,1.57248 0.895904,2.27118 0.157165,0.20988 0.228655,0.29188 0.242441,0.27809 0.0057,-0.006 0.0072,-0.12869 0.0035,-0.27344 -0.01553,-0.60081 -0.0072,-0.92652 0.0281,-1.09303 0.03776,-0.17833 0.107095,-0.384 0.174559,-0.51781 0.106011,-0.21025 0.287818,-0.43964 0.39989,-0.50454 0.05797,-0.0336 0.286957,-0.11569 0.322594,-0.11569 0.0083,0 -0.01256,0.0293 -0.04637,0.0651 -0.109001,0.11542 -0.108125,0.10903 -0.0225,0.16397 0.086,0.0552 0.231821,0.20548 0.33395,0.34419 0.145105,0.19708 0.262255,0.49336 0.319925,0.80909 0.02947,0.16138 0.0376,0.65129 0.01509,0.9091 -0.01453,0.16641 -0.0041,0.27187 0.02591,0.26208 0.01004,-0.003 0.05151,-0.0468 0.09214,-0.0967 z"
       id="path1" /></g></svg>
